{"glyphs":{"0":{"ha":863,"x_min":78,"x_max":786,"o":"m 432 -22 q 257 23 326 -22 q 149 142 188 68 q 94 306 110 217 q 78 482 78 394 q 98 660 78 569 q 161 826 118 750 q 272 948 204 901 q 438 994 340 994 q 606 949 539 994 q 713 828 674 903 q 769 665 753 754 q 786 489 786 576 q 767 313 786 403 q 706 147 747 222 q 597 24 664 71 q 432 -22 529 -22 m 440 32 q 539 69 500 32 q 601 169 578 107 q 633 308 624 232 q 643 460 643 383 q 633 629 643 544 q 600 785 624 714 q 536 899 576 856 q 435 942 496 942 q 334 904 375 942 q 268 804 293 867 q 232 665 243 742 q 221 511 221 589 q 226 388 221 453 q 247 259 232 322 q 286 144 261 196 q 349 63 311 93 q 440 32 386 32 z "},"1":{"ha":506,"x_min":25,"x_max":457,"o":"m 103 0 l 103 46 q 177 68 151 49 q 213 122 203 88 q 224 204 224 157 l 219 860 l 53 753 l 25 793 l 296 994 l 343 994 l 344 151 q 344 100 344 125 q 340 56 343 75 q 399 58 369 57 q 457 61 428 60 l 457 0 l 103 0 z "},"2":{"ha":746,"x_min":64,"x_max":674,"o":"m 64 0 q 87 131 64 74 q 149 235 110 188 q 237 328 188 283 q 338 424 286 374 q 468 583 428 510 q 508 725 508 657 q 494 827 508 778 q 442 908 479 876 q 338 940 404 940 q 236 912 281 940 q 176 842 192 883 q 196 812 190 828 q 201 781 201 796 q 195 753 201 768 q 174 726 189 738 q 133 715 158 715 q 86 739 103 717 q 69 792 69 761 q 88 856 69 821 q 142 923 106 892 q 233 974 179 954 q 360 994 288 994 q 467 981 415 994 q 561 939 519 968 q 627 862 603 910 q 651 743 651 814 q 637 668 651 708 q 590 581 622 628 q 506 483 557 535 q 379 369 454 431 q 224 223 285 292 q 154 106 164 154 l 400 99 q 520 99 468 97 q 602 120 572 100 q 632 194 632 140 l 674 194 l 665 0 l 64 0 z "},"3":{"ha":774,"x_min":61,"x_max":704,"o":"m 354 -22 q 189 8 254 -22 q 92 82 124 38 q 61 167 61 126 q 78 220 61 199 q 125 243 94 242 q 165 234 150 244 q 185 208 179 224 q 190 181 190 193 q 186 153 190 167 q 175 125 182 139 q 238 57 189 78 q 344 36 288 36 q 502 90 443 36 q 561 247 561 144 q 542 363 561 308 q 469 453 522 418 q 315 485 417 488 q 292 484 304 485 q 264 482 279 483 l 264 544 q 293 544 279 544 q 321 544 307 544 q 436 578 394 544 q 496 657 478 611 q 514 742 514 703 q 499 844 514 799 q 449 915 485 889 q 349 940 413 940 q 242 908 286 940 q 186 840 197 875 q 203 813 199 826 q 208 783 208 799 q 202 758 208 772 q 182 733 196 743 q 144 724 168 724 q 100 744 115 724 q 85 794 85 765 q 115 880 85 833 q 209 960 146 926 q 368 994 272 994 q 507 971 443 994 q 610 894 571 947 q 649 753 649 840 q 627 666 649 710 q 556 585 606 622 q 421 521 507 547 q 628 436 553 507 q 704 257 704 365 q 655 101 704 163 q 526 8 606 39 q 354 -22 446 -22 z "},"4":{"ha":753,"x_min":17,"x_max":706,"o":"m 565 151 q 565 99 565 124 q 560 53 564 74 q 614 55 588 54 q 667 57 640 56 l 667 0 l 318 0 l 318 46 l 328 46 q 399 72 375 50 q 431 132 422 94 q 439 221 439 169 l 439 268 l 17 268 l 17 336 l 519 994 l 565 994 l 565 351 l 706 350 l 706 268 l 565 268 l 565 151 m 436 797 l 108 358 l 439 354 l 439 797 l 436 797 z "},"5":{"ha":757,"x_min":72,"x_max":694,"o":"m 353 -22 q 201 8 264 -22 q 106 82 139 38 q 72 167 72 126 q 89 220 72 199 q 136 243 106 242 q 176 234 161 244 q 196 208 190 224 q 201 181 201 193 q 197 153 201 167 q 186 126 193 139 q 221 72 192 93 q 288 40 250 50 q 358 32 326 31 q 468 69 426 35 q 530 156 510 103 q 550 267 550 208 q 544 353 550 306 q 516 442 538 400 q 451 513 494 485 q 335 540 408 540 q 277 535 311 540 q 209 518 243 529 q 151 492 175 507 l 113 528 l 110 972 l 469 972 q 578 994 549 972 q 608 1063 608 1015 l 646 1063 l 638 879 l 174 869 l 174 564 q 260 590 207 578 q 375 603 314 603 q 522 576 461 603 q 620 503 582 549 q 676 403 658 458 q 694 292 694 349 q 647 119 694 189 q 521 13 599 49 q 353 -22 443 -22 z "},"6":{"ha":803,"x_min":78,"x_max":735,"o":"m 410 -22 q 213 36 286 -22 q 109 202 140 94 q 78 457 78 310 q 87 576 78 507 q 119 717 96 644 q 185 853 143 790 q 294 956 228 917 q 456 994 361 994 q 593 965 539 994 q 674 894 647 935 q 701 818 701 853 q 687 769 701 789 q 642 746 672 749 q 593 765 607 744 q 579 804 579 786 q 583 833 579 818 q 596 863 588 849 q 552 915 589 888 q 458 943 515 943 q 351 910 394 943 q 280 822 307 876 q 238 706 253 768 q 216 588 222 644 q 208 490 210 531 q 265 547 232 521 q 343 590 299 574 q 442 607 388 607 q 581 578 525 607 q 672 504 638 550 q 720 403 706 458 q 735 296 735 349 q 692 137 735 210 q 576 21 650 64 q 410 -22 503 -22 m 413 32 q 518 65 478 32 q 576 151 558 97 q 594 265 594 204 q 588 352 594 304 q 562 444 581 400 q 507 516 543 488 q 413 544 471 544 q 328 523 369 544 q 255 467 286 501 q 210 392 224 432 q 226 261 214 325 q 260 146 238 197 q 321 63 283 94 q 413 32 358 32 z "},"7":{"ha":640,"x_min":31,"x_max":613,"o":"m 271 -22 q 233 -3 244 -19 q 222 39 222 14 q 238 118 222 69 q 276 222 254 167 q 317 322 299 276 q 379 481 343 388 q 459 677 415 574 q 549 876 503 781 l 182 875 q 95 849 126 874 q 64 767 64 824 l 31 767 l 31 972 l 613 972 l 613 878 q 526 679 563 774 q 460 490 489 585 q 404 290 431 394 q 347 63 378 186 q 322 3 339 29 q 271 -22 304 -24 z "},"8":{"ha":781,"x_min":82,"x_max":711,"o":"m 383 -22 q 282 -10 335 -22 q 184 28 229 1 q 110 99 139 54 q 82 208 82 143 q 113 323 82 271 q 191 417 143 375 q 293 493 239 460 q 144 620 188 557 q 101 743 101 683 q 127 856 101 808 q 196 935 153 904 q 291 980 239 965 q 396 994 343 994 q 528 969 467 994 q 628 893 590 943 q 667 771 667 843 q 641 671 667 717 q 573 590 615 625 q 479 528 531 554 q 594 445 542 492 q 679 344 647 399 q 711 231 711 290 q 665 87 711 143 q 544 4 619 31 q 383 -22 469 -22 m 386 33 q 526 78 476 32 q 575 204 575 124 q 524 345 575 276 q 346 468 474 414 q 235 349 269 413 q 199 233 201 285 q 245 90 193 144 q 386 33 297 35 m 431 556 q 524 650 492 597 q 558 754 557 703 q 517 892 561 844 q 399 940 472 939 q 307 917 344 942 q 250 855 269 893 q 231 774 231 817 q 288 641 231 697 q 431 556 346 585 z "},"9":{"ha":803,"x_min":67,"x_max":721,"o":"m 357 -22 q 210 5 267 -22 q 129 72 154 32 q 104 149 104 113 q 119 200 104 179 q 165 222 135 221 q 213 202 199 224 q 228 163 228 181 q 223 134 228 149 q 208 106 218 119 q 251 53 218 75 q 350 31 283 31 q 457 61 414 31 q 526 142 500 92 q 567 253 553 193 q 585 374 581 314 q 590 481 590 433 q 497 399 556 433 q 357 364 439 364 q 217 392 274 364 q 128 467 161 421 q 81 567 96 513 q 67 674 67 621 q 107 837 67 764 q 221 952 147 910 q 394 994 294 994 q 556 957 493 994 q 656 852 619 919 q 706 694 692 785 q 721 499 721 604 q 713 367 721 438 q 684 228 706 297 q 622 103 663 160 q 517 13 582 47 q 357 -22 451 -22 m 386 426 q 472 448 431 426 q 544 504 513 469 q 589 579 576 539 q 574 708 585 644 q 540 825 563 772 q 479 910 517 878 q 385 942 442 942 q 285 908 325 942 q 224 819 244 874 q 204 704 204 765 q 211 617 204 665 q 237 526 218 569 q 292 454 256 482 q 386 426 328 426 z "},"A":{"ha":869,"x_min":-8,"x_max":886,"o":"m -8 0 l -8 46 q 56 68 33 46 q 92 129 78 90 q 126 219 107 168 l 413 999 l 446 999 l 756 208 q 781 133 767 179 q 792 56 794 88 q 839 58 815 57 q 886 61 863 60 l 886 0 l 568 0 l 568 46 q 638 69 621 47 q 650 122 654 92 q 636 178 646 153 l 588 308 l 226 300 l 178 151 q 160 99 168 118 q 143 56 153 79 q 198 58 171 57 q 251 61 225 60 l 251 0 l -8 0 m 247 360 l 568 360 l 469 625 q 438 710 454 668 q 407 796 422 753 l 404 796 q 376 718 390 757 q 346 639 361 679 l 247 360 z "},"Á":{"ha":869,"x_min":-8,"x_max":886,"o":"m -8 0 l -8 46 q 56 68 33 46 q 92 129 78 90 q 126 219 107 168 l 413 999 l 446 999 l 756 208 q 781 133 767 179 q 792 56 794 88 q 839 58 815 57 q 886 61 863 60 l 886 0 l 568 0 l 568 46 q 638 69 621 47 q 650 122 654 92 q 636 178 646 153 l 588 308 l 226 300 l 178 151 q 160 99 168 118 q 143 56 153 79 q 198 58 171 57 q 251 61 225 60 l 251 0 l -8 0 m 247 360 l 568 360 l 469 625 q 438 710 454 668 q 407 796 422 753 l 404 796 q 376 718 390 757 q 346 639 361 679 l 247 360 m 381 1056 l 350 1096 l 525 1263 q 573 1288 553 1286 q 605 1281 593 1289 q 618 1269 617 1274 q 626 1249 622 1264 q 622 1217 629 1235 q 582 1179 614 1199 l 381 1056 z "},"Ă":{"ha":869,"x_min":-8,"x_max":886,"o":"m -8 0 l -8 46 q 56 68 33 46 q 92 129 78 90 q 126 219 107 168 l 413 999 l 446 999 l 756 208 q 781 133 767 179 q 792 56 794 88 q 839 58 815 57 q 886 61 863 60 l 886 0 l 568 0 l 568 46 q 638 69 621 47 q 650 122 654 92 q 636 178 646 153 l 588 308 l 226 300 l 178 151 q 160 99 168 118 q 143 56 153 79 q 198 58 171 57 q 251 61 225 60 l 251 0 l -8 0 m 247 360 l 568 360 l 469 625 q 438 710 454 668 q 407 796 422 753 l 404 796 q 376 718 390 757 q 346 639 361 679 l 247 360 m 429 1124 q 349 1140 388 1124 q 278 1189 310 1157 q 226 1267 247 1221 l 263 1283 q 331 1231 285 1254 q 429 1208 376 1208 q 528 1231 482 1208 q 596 1283 574 1254 l 633 1267 q 581 1189 613 1221 q 510 1140 549 1157 q 429 1124 472 1124 z "},"Â":{"ha":869,"x_min":-8,"x_max":886,"o":"m -8 0 l -8 46 q 56 68 33 46 q 92 129 78 90 q 126 219 107 168 l 413 999 l 446 999 l 756 208 q 781 133 767 179 q 792 56 794 88 q 839 58 815 57 q 886 61 863 60 l 886 0 l 568 0 l 568 46 q 638 69 621 47 q 650 122 654 92 q 636 178 646 153 l 588 308 l 226 300 l 178 151 q 160 99 168 118 q 143 56 153 79 q 198 58 171 57 q 251 61 225 60 l 251 0 l -8 0 m 247 360 l 568 360 l 469 625 q 438 710 454 668 q 407 796 422 753 l 404 796 q 376 718 390 757 q 346 639 361 679 l 247 360 m 610 1056 l 431 1172 l 254 1056 l 219 1096 l 435 1293 l 438 1293 l 642 1097 l 610 1056 z "},"Ä":{"ha":869,"x_min":-8,"x_max":886,"o":"m -8 0 l -8 46 q 56 68 33 46 q 92 129 78 90 q 126 219 107 168 l 413 999 l 446 999 l 756 208 q 781 133 767 179 q 792 56 794 88 q 839 58 815 57 q 886 61 863 60 l 886 0 l 568 0 l 568 46 q 638 69 621 47 q 650 122 654 92 q 636 178 646 153 l 588 308 l 226 300 l 178 151 q 160 99 168 118 q 143 56 153 79 q 198 58 171 57 q 251 61 225 60 l 251 0 l -8 0 m 247 360 l 568 360 l 469 625 q 438 710 454 668 q 407 796 422 753 l 404 796 q 376 718 390 757 q 346 639 361 679 l 247 360 m 304 1078 q 251 1103 274 1078 q 229 1165 229 1129 q 252 1228 229 1203 q 306 1254 275 1254 q 359 1228 338 1254 q 381 1165 381 1203 q 358 1103 381 1129 q 304 1078 335 1078 m 554 1078 q 501 1103 524 1078 q 479 1165 479 1129 q 502 1228 479 1203 q 556 1254 525 1254 q 608 1228 588 1254 q 629 1165 629 1203 q 607 1103 629 1129 q 554 1078 585 1078 z "},"À":{"ha":869,"x_min":-8,"x_max":886,"o":"m -8 0 l -8 46 q 56 68 33 46 q 92 129 78 90 q 126 219 107 168 l 413 999 l 446 999 l 756 208 q 781 133 767 179 q 792 56 794 88 q 839 58 815 57 q 886 61 863 60 l 886 0 l 568 0 l 568 46 q 638 69 621 47 q 650 122 654 92 q 636 178 646 153 l 588 308 l 226 300 l 178 151 q 160 99 168 118 q 143 56 153 79 q 198 58 171 57 q 251 61 225 60 l 251 0 l -8 0 m 247 360 l 568 360 l 469 625 q 438 710 454 668 q 407 796 422 753 l 404 796 q 376 718 390 757 q 346 639 361 679 l 247 360 m 479 1056 l 278 1179 q 239 1217 247 1199 q 234 1249 231 1235 q 242 1269 238 1264 q 256 1281 244 1274 q 288 1288 268 1289 q 335 1263 308 1286 l 510 1096 l 479 1056 z "},"Å":{"ha":869,"x_min":-8,"x_max":886,"o":"m -8 0 l -8 46 q 56 68 33 46 q 92 129 78 90 q 126 219 107 168 l 413 999 l 446 999 l 756 208 q 781 133 767 179 q 792 56 794 88 q 839 58 815 57 q 886 61 863 60 l 886 0 l 568 0 l 568 46 q 638 69 621 47 q 650 122 654 92 q 636 178 646 153 l 588 308 l 226 300 l 178 151 q 160 99 168 118 q 143 56 153 79 q 198 58 171 57 q 251 61 225 60 l 251 0 l -8 0 m 247 360 l 568 360 l 469 625 q 438 710 454 668 q 407 796 422 753 l 404 796 q 376 718 390 757 q 346 639 361 679 l 247 360 m 431 993 q 356 1008 392 993 q 297 1056 319 1024 q 271 1139 274 1089 q 292 1224 269 1188 q 352 1280 315 1260 q 428 1300 389 1300 q 501 1285 465 1300 q 562 1238 538 1269 q 588 1156 586 1206 q 566 1069 589 1106 q 506 1013 543 1032 q 431 993 469 993 m 436 1042 q 485 1068 464 1043 q 507 1136 507 1093 q 483 1226 507 1196 q 424 1253 460 1256 q 372 1224 392 1251 q 351 1153 351 1197 q 374 1071 351 1101 q 436 1042 397 1040 z "},"Ã":{"ha":869,"x_min":-8,"x_max":886,"o":"m -8 0 l -8 46 q 56 68 33 46 q 92 129 78 90 q 126 219 107 168 l 413 999 l 446 999 l 756 208 q 781 133 767 179 q 792 56 794 88 q 839 58 815 57 q 886 61 863 60 l 886 0 l 568 0 l 568 46 q 638 69 621 47 q 650 122 654 92 q 636 178 646 153 l 588 308 l 226 300 l 178 151 q 160 99 168 118 q 143 56 153 79 q 198 58 171 57 q 251 61 225 60 l 251 0 l -8 0 m 247 360 l 568 360 l 469 625 q 438 710 454 668 q 407 796 422 753 l 404 796 q 376 718 390 757 q 346 639 361 679 l 247 360 m 697 1235 q 651 1144 678 1178 q 593 1094 624 1110 q 532 1079 563 1079 q 461 1094 492 1079 q 406 1128 431 1108 q 358 1163 381 1149 q 311 1178 336 1178 q 258 1156 281 1178 q 208 1094 235 1133 l 161 1121 q 230 1222 185 1182 q 318 1264 275 1263 q 389 1251 360 1265 q 442 1217 418 1236 q 489 1182 465 1197 q 540 1167 513 1167 q 605 1194 578 1167 q 653 1257 632 1221 l 697 1235 z "},"Æ":{"ha":1318,"x_min":-29,"x_max":1256,"o":"m -29 0 l -29 46 q 36 66 8 46 q 86 116 64 86 q 126 174 108 146 l 628 917 l 503 911 l 503 972 l 1199 972 l 1206 729 l 1160 729 q 1135 853 1160 811 q 1067 910 1110 896 q 972 924 1025 925 l 853 921 q 779 901 801 919 q 752 848 757 883 q 747 756 747 813 l 747 533 l 1008 532 l 999 651 l 1060 651 l 1060 360 l 1014 360 q 997 447 1014 421 q 944 479 981 474 q 849 482 908 485 l 747 478 l 747 164 q 747 100 747 126 q 743 56 746 74 l 1017 51 q 1119 72 1076 51 q 1185 142 1161 93 q 1208 271 1208 190 l 1256 271 l 1247 0 l 531 0 l 531 50 q 590 64 569 53 q 618 102 610 75 q 626 181 626 129 l 626 307 l 289 300 l 221 199 q 173 128 197 164 q 125 56 149 92 l 231 61 l 231 0 l -29 0 m 328 360 l 626 360 l 626 808 l 328 360 z "},"B":{"ha":864,"x_min":76,"x_max":810,"o":"m 76 0 l 76 46 q 149 70 129 47 q 170 133 168 93 q 172 224 172 172 l 172 807 q 174 872 172 844 q 176 917 175 899 q 126 914 151 915 q 76 911 101 913 l 76 972 q 230 974 153 974 q 390 975 307 975 q 642 918 551 975 q 731 738 733 861 q 705 649 731 693 q 628 570 679 604 q 501 522 578 536 l 501 519 q 732 449 654 519 q 810 272 810 379 q 767 126 810 188 q 650 33 724 65 q 482 0 576 0 l 76 0 m 289 56 q 342 53 311 54 q 401 53 374 53 q 436 53 428 53 q 609 106 543 53 q 675 264 675 160 q 642 396 675 349 q 554 463 608 443 q 436 482 500 482 q 360 481 394 482 q 293 478 326 481 l 293 164 q 292 100 293 126 q 289 56 292 74 m 293 532 l 394 535 q 519 567 474 536 q 585 646 565 599 q 604 744 606 693 q 570 858 603 819 q 490 911 538 897 q 397 925 443 925 q 329 913 351 925 q 300 871 307 900 q 293 790 293 842 l 293 532 z "},"C":{"ha":971,"x_min":64,"x_max":929,"o":"m 844 663 q 753 865 831 793 q 556 938 676 938 q 417 906 482 938 q 304 817 353 875 q 228 676 256 758 q 200 492 200 594 q 250 261 200 361 q 385 106 300 161 q 572 50 469 50 q 750 91 663 50 q 893 210 838 132 l 929 181 q 800 54 869 99 q 662 -6 731 10 q 536 -22 593 -22 q 345 15 432 -22 q 195 120 258 53 q 98 277 132 188 q 64 471 64 367 q 94 663 64 569 q 183 831 124 756 q 334 950 243 906 q 546 994 425 994 q 693 974 624 994 q 826 910 763 953 l 819 985 l 894 985 l 894 663 l 844 663 z "},"Ç":{"ha":971,"x_min":64,"x_max":929,"o":"m 844 663 q 753 865 831 793 q 556 938 676 938 q 417 906 482 938 q 304 817 353 875 q 228 676 256 758 q 200 492 200 594 q 250 261 200 361 q 385 106 300 161 q 572 50 469 50 q 750 91 663 50 q 893 210 838 132 l 929 181 q 800 54 869 99 q 662 -6 731 10 q 536 -22 593 -22 q 345 15 432 -22 q 195 120 258 53 q 98 277 132 188 q 64 471 64 367 q 94 663 64 569 q 183 831 124 756 q 334 950 243 906 q 546 994 425 994 q 693 974 624 994 q 826 910 763 953 l 819 985 l 894 985 l 894 663 l 844 663 m 464 -361 l 456 -308 q 522 -291 492 -301 q 576 -266 553 -281 q 612 -234 599 -251 q 625 -196 625 -217 q 608 -158 625 -167 q 565 -153 590 -149 q 519 -171 540 -157 l 469 -147 l 510 11 l 590 11 l 553 -107 q 599 -90 572 -94 q 643 -85 626 -85 q 723 -113 696 -85 q 750 -183 750 -142 q 719 -256 750 -225 q 642 -309 689 -287 q 548 -343 596 -331 q 464 -361 500 -356 z "},"D":{"ha":1035,"x_min":76,"x_max":971,"o":"m 76 46 q 149 70 129 49 q 170 130 168 92 q 172 217 172 168 l 172 817 q 174 870 172 844 q 176 917 175 896 q 126 914 151 915 q 76 911 101 913 l 76 972 l 404 974 q 633 944 529 974 q 813 855 738 915 q 930 702 889 794 q 971 485 971 610 q 938 301 971 389 q 838 147 904 214 q 672 40 771 79 q 442 0 572 0 l 76 0 l 76 46 m 293 164 q 292 100 293 126 q 289 56 292 74 q 358 53 326 54 q 410 53 389 53 q 438 53 432 53 q 601 86 528 53 q 726 178 674 119 q 806 317 778 238 q 835 490 835 397 q 787 719 835 622 q 640 869 739 815 q 389 922 542 922 q 317 901 338 922 q 295 843 297 881 q 293 756 293 806 l 293 164 z "},"Ð":{"ha":1035,"x_min":26,"x_max":971,"o":"m 26 465 l 26 524 l 546 524 l 546 465 l 26 465 m 76 46 q 149 70 129 49 q 170 130 168 92 q 172 217 172 168 l 172 817 q 174 870 172 844 q 176 917 175 896 q 126 914 151 915 q 76 911 101 913 l 76 972 l 404 974 q 633 944 529 974 q 813 855 738 915 q 930 702 889 794 q 971 485 971 610 q 938 301 971 389 q 838 147 904 214 q 672 40 771 79 q 442 0 572 0 l 76 0 l 76 46 m 293 164 q 292 100 293 126 q 289 56 292 74 q 358 53 326 54 q 410 53 389 53 q 438 53 432 53 q 601 86 528 53 q 726 178 674 119 q 806 317 778 238 q 835 490 835 397 q 787 719 835 622 q 640 869 739 815 q 389 922 542 922 q 317 901 338 922 q 295 843 297 881 q 293 756 293 806 l 293 164 z "},"E":{"ha":864,"x_min":76,"x_max":801,"o":"m 560 360 q 543 447 560 421 q 490 479 526 474 q 394 482 454 485 l 293 478 l 293 160 q 292 96 293 122 q 289 51 292 69 l 554 56 q 660 76 615 57 q 729 142 704 94 q 754 271 754 189 l 801 271 l 793 0 l 76 0 l 76 46 q 149 70 129 49 q 170 130 168 92 q 172 217 172 168 l 172 817 q 174 870 172 844 q 176 917 175 896 q 126 914 151 915 q 76 911 101 913 l 76 972 l 744 972 l 751 729 l 706 729 q 681 853 706 811 q 613 910 656 896 q 518 924 571 925 l 399 921 q 325 901 347 919 q 298 848 303 883 q 293 756 293 813 l 293 533 l 554 532 l 544 651 l 606 651 l 606 360 l 560 360 z "},"É":{"ha":864,"x_min":76,"x_max":801,"o":"m 560 360 q 543 447 560 421 q 490 479 526 474 q 394 482 454 485 l 293 478 l 293 160 q 292 96 293 122 q 289 51 292 69 l 554 56 q 660 76 615 57 q 729 142 704 94 q 754 271 754 189 l 801 271 l 793 0 l 76 0 l 76 46 q 149 70 129 49 q 170 130 168 92 q 172 217 172 168 l 172 817 q 174 870 172 844 q 176 917 175 896 q 126 914 151 915 q 76 911 101 913 l 76 972 l 744 972 l 751 729 l 706 729 q 681 853 706 811 q 613 910 656 896 q 518 924 571 925 l 399 921 q 325 901 347 919 q 298 848 303 883 q 293 756 293 813 l 293 533 l 554 532 l 544 651 l 606 651 l 606 360 l 560 360 m 406 1056 l 375 1096 l 550 1263 q 598 1288 578 1286 q 630 1281 618 1289 q 643 1269 642 1274 q 651 1249 647 1264 q 647 1217 654 1235 q 607 1179 639 1199 l 406 1056 z "},"Ê":{"ha":864,"x_min":76,"x_max":801,"o":"m 560 360 q 543 447 560 421 q 490 479 526 474 q 394 482 454 485 l 293 478 l 293 160 q 292 96 293 122 q 289 51 292 69 l 554 56 q 660 76 615 57 q 729 142 704 94 q 754 271 754 189 l 801 271 l 793 0 l 76 0 l 76 46 q 149 70 129 49 q 170 130 168 92 q 172 217 172 168 l 172 817 q 174 870 172 844 q 176 917 175 896 q 126 914 151 915 q 76 911 101 913 l 76 972 l 744 972 l 751 729 l 706 729 q 681 853 706 811 q 613 910 656 896 q 518 924 571 925 l 399 921 q 325 901 347 919 q 298 848 303 883 q 293 756 293 813 l 293 533 l 554 532 l 544 651 l 606 651 l 606 360 l 560 360 m 635 1056 l 456 1172 l 279 1056 l 244 1096 l 460 1293 l 463 1293 l 667 1097 l 635 1056 z "},"Ë":{"ha":864,"x_min":76,"x_max":801,"o":"m 560 360 q 543 447 560 421 q 490 479 526 474 q 394 482 454 485 l 293 478 l 293 160 q 292 96 293 122 q 289 51 292 69 l 554 56 q 660 76 615 57 q 729 142 704 94 q 754 271 754 189 l 801 271 l 793 0 l 76 0 l 76 46 q 149 70 129 49 q 170 130 168 92 q 172 217 172 168 l 172 817 q 174 870 172 844 q 176 917 175 896 q 126 914 151 915 q 76 911 101 913 l 76 972 l 744 972 l 751 729 l 706 729 q 681 853 706 811 q 613 910 656 896 q 518 924 571 925 l 399 921 q 325 901 347 919 q 298 848 303 883 q 293 756 293 813 l 293 533 l 554 532 l 544 651 l 606 651 l 606 360 l 560 360 m 329 1078 q 276 1103 299 1078 q 254 1165 254 1129 q 277 1228 254 1203 q 331 1254 300 1254 q 384 1228 363 1254 q 406 1165 406 1203 q 383 1103 406 1129 q 329 1078 360 1078 m 579 1078 q 526 1103 549 1078 q 504 1165 504 1129 q 527 1228 504 1203 q 581 1254 550 1254 q 633 1228 613 1254 q 654 1165 654 1203 q 632 1103 654 1129 q 579 1078 610 1078 z "},"È":{"ha":864,"x_min":76,"x_max":801,"o":"m 560 360 q 543 447 560 421 q 490 479 526 474 q 394 482 454 485 l 293 478 l 293 160 q 292 96 293 122 q 289 51 292 69 l 554 56 q 660 76 615 57 q 729 142 704 94 q 754 271 754 189 l 801 271 l 793 0 l 76 0 l 76 46 q 149 70 129 49 q 170 130 168 92 q 172 217 172 168 l 172 817 q 174 870 172 844 q 176 917 175 896 q 126 914 151 915 q 76 911 101 913 l 76 972 l 744 972 l 751 729 l 706 729 q 681 853 706 811 q 613 910 656 896 q 518 924 571 925 l 399 921 q 325 901 347 919 q 298 848 303 883 q 293 756 293 813 l 293 533 l 554 532 l 544 651 l 606 651 l 606 360 l 560 360 m 504 1056 l 303 1179 q 264 1217 272 1199 q 259 1249 256 1235 q 267 1269 263 1264 q 281 1281 269 1274 q 313 1288 293 1289 q 360 1263 333 1286 l 535 1096 l 504 1056 z "},"F":{"ha":761,"x_min":76,"x_max":728,"o":"m 76 0 l 76 46 q 149 70 129 49 q 170 130 168 92 q 172 217 172 168 l 172 817 q 174 870 172 844 q 176 917 175 896 q 126 914 151 915 q 76 911 101 913 l 76 972 l 721 972 l 728 729 l 682 729 q 656 853 682 811 q 586 910 629 896 q 490 924 543 925 l 389 921 q 318 897 338 919 q 296 836 299 874 q 293 750 293 799 l 293 511 l 535 510 l 525 631 l 586 631 l 586 338 l 542 338 q 524 426 542 400 q 471 458 507 453 q 376 461 435 464 l 293 457 l 293 165 q 292 101 293 128 q 289 56 292 74 q 336 58 313 57 q 383 60 360 58 q 431 61 407 61 l 431 0 l 76 0 z "},"G":{"ha":1057,"x_min":65,"x_max":1028,"o":"m 538 -22 q 292 36 399 -22 q 125 204 185 94 q 65 465 65 314 q 95 658 65 564 q 185 828 125 751 q 337 949 246 904 q 549 994 428 994 q 650 985 599 994 q 749 959 701 976 q 836 918 797 942 l 831 985 l 907 985 l 907 667 l 857 667 q 810 815 851 754 q 704 907 769 875 q 558 939 639 939 q 420 906 485 939 q 306 815 356 874 q 229 675 257 756 q 201 497 201 594 q 249 264 201 367 q 380 103 296 161 q 574 44 464 44 q 652 51 611 44 q 734 74 693 58 q 811 114 775 90 l 811 283 q 811 351 811 317 q 811 418 811 385 q 763 415 788 417 q 714 413 738 414 l 714 474 l 1028 474 l 1028 428 q 968 408 989 428 q 939 359 947 388 q 929 303 931 331 q 928 263 928 276 l 928 50 l 890 50 q 829 42 868 50 q 740 14 790 33 q 640 -12 697 -3 q 538 -22 583 -22 z "},"H":{"ha":1083,"x_min":76,"x_max":1007,"o":"m 76 0 l 76 46 q 149 70 129 49 q 170 130 168 92 q 172 217 172 168 l 172 817 q 174 870 172 844 q 176 917 175 896 q 126 914 151 915 q 76 911 101 913 l 76 972 l 389 972 l 389 926 q 317 903 338 925 q 295 843 297 881 q 293 756 293 806 l 293 525 l 790 525 l 790 817 q 792 870 790 844 q 794 917 793 896 q 744 914 769 915 q 694 911 719 913 l 694 972 l 1007 972 l 1007 926 q 935 903 956 925 q 913 843 915 881 q 911 756 911 806 l 911 165 q 910 101 911 128 q 907 56 910 74 q 957 58 932 57 q 1007 61 982 60 l 1007 0 l 694 0 l 694 46 q 767 70 747 49 q 788 130 786 92 q 790 217 790 168 l 790 469 l 293 464 l 293 165 q 292 101 293 128 q 289 56 292 74 q 339 58 314 57 q 389 61 364 60 l 389 0 l 76 0 z "},"I":{"ha":465,"x_min":76,"x_max":389,"o":"m 389 926 q 317 903 338 925 q 295 843 297 881 q 293 756 293 806 l 293 165 q 292 101 293 128 q 289 56 292 74 q 339 58 314 57 q 389 61 364 60 l 389 0 l 76 0 l 76 46 q 149 70 129 49 q 170 130 168 92 q 172 217 172 168 l 172 817 q 174 870 172 844 q 176 917 175 896 q 126 914 151 915 q 76 911 101 913 l 76 972 l 389 972 l 389 926 z "},"Í":{"ha":465,"x_min":76,"x_max":438,"o":"m 389 926 q 317 903 338 925 q 295 843 297 881 q 293 756 293 806 l 293 165 q 292 101 293 128 q 289 56 292 74 q 339 58 314 57 q 389 61 364 60 l 389 0 l 76 0 l 76 46 q 149 70 129 49 q 170 130 168 92 q 172 217 172 168 l 172 817 q 174 870 172 844 q 176 917 175 896 q 126 914 151 915 q 76 911 101 913 l 76 972 l 389 972 l 389 926 m 189 1056 l 158 1096 l 333 1263 q 381 1288 361 1286 q 413 1281 401 1289 q 426 1269 425 1274 q 434 1249 431 1264 q 430 1217 438 1235 q 390 1179 422 1199 l 189 1056 z "},"Î":{"ha":465,"x_min":28,"x_max":450,"o":"m 389 926 q 317 903 338 925 q 295 843 297 881 q 293 756 293 806 l 293 165 q 292 101 293 128 q 289 56 292 74 q 339 58 314 57 q 389 61 364 60 l 389 0 l 76 0 l 76 46 q 149 70 129 49 q 170 130 168 92 q 172 217 172 168 l 172 817 q 174 870 172 844 q 176 917 175 896 q 126 914 151 915 q 76 911 101 913 l 76 972 l 389 972 l 389 926 m 418 1056 l 239 1172 l 63 1056 l 28 1096 l 243 1293 l 246 1293 l 450 1097 l 418 1056 z "},"Ï":{"ha":465,"x_min":38,"x_max":438,"o":"m 389 926 q 317 903 338 925 q 295 843 297 881 q 293 756 293 806 l 293 165 q 292 101 293 128 q 289 56 292 74 q 339 58 314 57 q 389 61 364 60 l 389 0 l 76 0 l 76 46 q 149 70 129 49 q 170 130 168 92 q 172 217 172 168 l 172 817 q 174 870 172 844 q 176 917 175 896 q 126 914 151 915 q 76 911 101 913 l 76 972 l 389 972 l 389 926 m 113 1078 q 60 1103 82 1078 q 38 1165 38 1129 q 60 1228 38 1203 q 114 1254 83 1254 q 167 1228 146 1254 q 189 1165 189 1203 q 166 1103 189 1129 q 113 1078 143 1078 m 363 1078 q 310 1103 332 1078 q 288 1165 288 1129 q 310 1228 288 1203 q 364 1254 333 1254 q 417 1228 396 1254 q 438 1165 438 1203 q 415 1103 438 1129 q 363 1078 393 1078 z "},"Ì":{"ha":465,"x_min":39,"x_max":389,"o":"m 389 926 q 317 903 338 925 q 295 843 297 881 q 293 756 293 806 l 293 165 q 292 101 293 128 q 289 56 292 74 q 339 58 314 57 q 389 61 364 60 l 389 0 l 76 0 l 76 46 q 149 70 129 49 q 170 130 168 92 q 172 217 172 168 l 172 817 q 174 870 172 844 q 176 917 175 896 q 126 914 151 915 q 76 911 101 913 l 76 972 l 389 972 l 389 926 m 288 1056 l 86 1179 q 47 1217 56 1199 q 42 1249 39 1235 q 50 1269 46 1264 q 65 1281 53 1274 q 97 1288 76 1289 q 143 1263 117 1286 l 318 1096 l 288 1056 z "},"J":{"ha":518,"x_min":-3,"x_max":476,"o":"m 144 -22 q 72 -10 106 -22 q 18 24 39 1 q -3 76 -3 46 q 12 126 -3 104 q 57 149 26 147 q 105 130 92 151 q 118 88 118 108 q 117 73 118 82 q 113 57 115 64 q 139 38 121 43 q 167 35 157 33 q 228 72 208 36 q 249 193 249 108 l 249 793 q 249 856 249 825 q 249 917 249 886 q 178 914 214 915 q 107 911 143 913 l 107 972 l 476 972 l 476 926 q 408 908 431 926 q 377 859 385 890 q 369 789 369 828 l 369 339 q 317 60 369 143 q 144 -22 264 -22 z "},"K":{"ha":949,"x_min":76,"x_max":942,"o":"m 76 0 l 76 46 q 149 70 129 49 q 170 130 168 92 q 172 217 172 168 l 172 817 q 174 870 172 844 q 176 917 175 896 q 126 914 151 915 q 76 911 101 913 l 76 972 l 389 972 l 389 926 q 317 903 338 925 q 295 843 297 881 q 293 756 293 806 l 293 528 l 397 528 l 571 801 q 615 863 589 829 q 669 918 642 896 q 627 917 649 917 q 585 915 606 917 l 585 972 l 883 972 l 883 926 q 779 907 825 922 q 692 853 733 892 q 603 739 650 815 l 467 522 q 532 467 507 499 q 582 404 557 436 l 738 197 q 824 95 790 128 q 885 54 858 63 q 942 46 913 46 l 942 0 l 772 0 q 735 19 758 0 q 686 70 713 39 q 632 136 660 101 l 465 361 q 413 427 439 396 q 361 474 386 458 l 293 472 l 293 165 q 292 101 293 128 q 289 56 292 74 q 339 58 314 57 q 389 61 364 60 l 389 0 l 76 0 z "},"L":{"ha":803,"x_min":76,"x_max":774,"o":"m 76 0 l 76 46 q 149 70 129 49 q 170 130 168 92 q 172 217 172 168 l 172 817 q 174 870 172 844 q 176 917 175 896 q 126 914 151 915 q 76 911 101 913 l 76 972 l 389 972 l 389 926 q 317 903 338 925 q 295 843 297 881 q 293 756 293 806 l 293 160 q 292 96 293 122 q 289 51 292 69 l 549 56 q 681 111 636 57 q 726 288 726 165 l 774 288 l 765 0 l 76 0 z "},"M":{"ha":1275,"x_min":61,"x_max":1228,"o":"m 600 -14 q 476 263 539 125 q 354 543 414 401 q 316 633 335 588 q 280 724 297 678 q 244 815 263 769 q 244 785 244 800 q 243 754 243 769 q 240 634 242 704 q 235 484 238 564 q 231 324 232 404 q 228 174 229 244 q 226 113 226 143 q 222 56 225 82 q 274 58 249 57 q 326 61 300 60 l 326 0 l 61 0 l 61 46 q 124 65 104 47 q 150 111 144 82 q 157 174 156 140 l 183 807 q 185 863 185 835 q 188 917 186 890 q 138 915 163 915 q 88 913 113 914 l 88 972 l 300 972 l 539 421 q 574 338 557 379 q 610 254 592 296 q 647 169 629 213 l 650 169 q 686 259 665 207 q 721 349 707 311 q 848 655 782 501 q 978 972 914 808 l 1183 972 l 1183 926 q 1126 913 1149 928 q 1094 865 1104 899 q 1088 775 1085 832 l 1124 143 q 1126 97 1126 119 q 1126 57 1126 75 q 1177 59 1151 58 q 1228 61 1203 60 l 1228 0 l 917 0 l 917 46 q 981 67 960 47 q 1006 122 1001 86 q 1008 211 1011 158 l 981 669 q 978 714 979 692 q 975 758 976 736 q 972 803 974 781 q 963 782 968 793 q 954 758 958 771 l 642 -14 l 600 -14 z "},"N":{"ha":1058,"x_min":79,"x_max":999,"o":"m 836 -22 l 282 722 q 258 755 269 739 q 233 788 246 771 l 232 788 l 236 193 q 236 124 236 158 q 233 56 236 89 q 283 58 258 57 q 333 61 308 60 l 333 0 l 79 0 l 79 46 q 141 65 122 46 q 165 109 160 83 q 171 156 171 135 l 172 824 q 172 871 172 847 q 172 917 172 894 q 126 914 150 915 q 79 911 103 913 l 79 972 l 244 972 l 765 275 q 801 228 783 251 q 836 181 818 204 l 838 181 l 839 817 q 840 870 839 844 q 843 917 842 896 q 793 914 818 915 q 743 911 768 913 l 743 972 l 999 972 l 999 926 q 928 903 947 925 q 907 843 908 881 q 906 756 906 806 l 903 -22 l 836 -22 z "},"Ñ":{"ha":1058,"x_min":79,"x_max":999,"o":"m 836 -22 l 282 722 q 258 755 269 739 q 233 788 246 771 l 232 788 l 236 193 q 236 124 236 158 q 233 56 236 89 q 283 58 258 57 q 333 61 308 60 l 333 0 l 79 0 l 79 46 q 141 65 122 46 q 165 109 160 83 q 171 156 171 135 l 172 824 q 172 871 172 847 q 172 917 172 894 q 126 914 150 915 q 79 911 103 913 l 79 972 l 244 972 l 765 275 q 801 228 783 251 q 836 181 818 204 l 838 181 l 839 817 q 840 870 839 844 q 843 917 842 896 q 793 914 818 915 q 743 911 768 913 l 743 972 l 999 972 l 999 926 q 928 903 947 925 q 907 843 908 881 q 906 756 906 806 l 903 -22 l 836 -22 m 817 1235 q 770 1144 797 1178 q 713 1094 743 1110 q 651 1079 682 1079 q 581 1094 611 1079 q 525 1128 550 1108 q 478 1163 500 1149 q 431 1178 456 1178 q 377 1156 400 1178 q 328 1094 354 1133 l 281 1121 q 349 1222 304 1182 q 438 1264 394 1263 q 508 1251 479 1265 q 561 1217 538 1236 q 608 1182 585 1197 q 660 1167 632 1167 q 724 1194 697 1167 q 772 1257 751 1221 l 817 1235 z "},"O":{"ha":1103,"x_min":64,"x_max":1042,"o":"m 558 -22 q 332 22 426 -22 q 178 141 238 67 q 92 306 119 215 q 64 486 64 396 q 93 663 64 574 q 183 828 122 753 q 334 949 243 903 q 547 994 425 994 q 768 949 675 994 q 922 827 861 903 q 1012 663 982 751 q 1042 486 1042 574 q 1013 310 1042 400 q 923 145 983 221 q 772 24 863 69 q 558 -22 682 -22 m 561 35 q 711 72 647 35 q 817 170 775 108 q 881 308 860 232 q 903 460 903 383 q 879 631 903 546 q 810 785 856 715 q 697 897 764 854 q 543 939 629 939 q 392 901 457 939 q 285 802 328 864 q 222 665 243 740 q 200 511 200 589 q 222 351 200 435 q 288 196 243 268 q 400 79 332 124 q 561 35 468 35 z "},"Ó":{"ha":1103,"x_min":64,"x_max":1042,"o":"m 558 -22 q 332 22 426 -22 q 178 141 238 67 q 92 306 119 215 q 64 486 64 396 q 93 663 64 574 q 183 828 122 753 q 334 949 243 903 q 547 994 425 994 q 768 949 675 994 q 922 827 861 903 q 1012 663 982 751 q 1042 486 1042 574 q 1013 310 1042 400 q 923 145 983 221 q 772 24 863 69 q 558 -22 682 -22 m 561 35 q 711 72 647 35 q 817 170 775 108 q 881 308 860 232 q 903 460 903 383 q 879 631 903 546 q 810 785 856 715 q 697 897 764 854 q 543 939 629 939 q 392 901 457 939 q 285 802 328 864 q 222 665 243 740 q 200 511 200 589 q 222 351 200 435 q 288 196 243 268 q 400 79 332 124 q 561 35 468 35 m 492 1056 l 461 1096 l 636 1263 q 684 1288 664 1286 q 716 1281 704 1289 q 729 1269 728 1274 q 737 1249 733 1264 q 733 1217 740 1235 q 693 1179 725 1199 l 492 1056 z "},"Ô":{"ha":1103,"x_min":64,"x_max":1042,"o":"m 558 -22 q 332 22 426 -22 q 178 141 238 67 q 92 306 119 215 q 64 486 64 396 q 93 663 64 574 q 183 828 122 753 q 334 949 243 903 q 547 994 425 994 q 768 949 675 994 q 922 827 861 903 q 1012 663 982 751 q 1042 486 1042 574 q 1013 310 1042 400 q 923 145 983 221 q 772 24 863 69 q 558 -22 682 -22 m 561 35 q 711 72 647 35 q 817 170 775 108 q 881 308 860 232 q 903 460 903 383 q 879 631 903 546 q 810 785 856 715 q 697 897 764 854 q 543 939 629 939 q 392 901 457 939 q 285 802 328 864 q 222 665 243 740 q 200 511 200 589 q 222 351 200 435 q 288 196 243 268 q 400 79 332 124 q 561 35 468 35 m 721 1056 l 542 1172 l 365 1056 l 331 1096 l 546 1293 l 549 1293 l 753 1097 l 721 1056 z "},"Ö":{"ha":1103,"x_min":64,"x_max":1042,"o":"m 558 -22 q 332 22 426 -22 q 178 141 238 67 q 92 306 119 215 q 64 486 64 396 q 93 663 64 574 q 183 828 122 753 q 334 949 243 903 q 547 994 425 994 q 768 949 675 994 q 922 827 861 903 q 1012 663 982 751 q 1042 486 1042 574 q 1013 310 1042 400 q 923 145 983 221 q 772 24 863 69 q 558 -22 682 -22 m 561 35 q 711 72 647 35 q 817 170 775 108 q 881 308 860 232 q 903 460 903 383 q 879 631 903 546 q 810 785 856 715 q 697 897 764 854 q 543 939 629 939 q 392 901 457 939 q 285 802 328 864 q 222 665 243 740 q 200 511 200 589 q 222 351 200 435 q 288 196 243 268 q 400 79 332 124 q 561 35 468 35 m 415 1078 q 363 1103 385 1078 q 340 1165 340 1129 q 363 1228 340 1203 q 417 1254 386 1254 q 470 1228 449 1254 q 492 1165 492 1203 q 469 1103 492 1129 q 415 1078 446 1078 m 665 1078 q 613 1103 635 1078 q 590 1165 590 1129 q 613 1228 590 1203 q 667 1254 636 1254 q 719 1228 699 1254 q 740 1165 740 1203 q 718 1103 740 1129 q 665 1078 696 1078 z "},"Ò":{"ha":1103,"x_min":64,"x_max":1042,"o":"m 558 -22 q 332 22 426 -22 q 178 141 238 67 q 92 306 119 215 q 64 486 64 396 q 93 663 64 574 q 183 828 122 753 q 334 949 243 903 q 547 994 425 994 q 768 949 675 994 q 922 827 861 903 q 1012 663 982 751 q 1042 486 1042 574 q 1013 310 1042 400 q 923 145 983 221 q 772 24 863 69 q 558 -22 682 -22 m 561 35 q 711 72 647 35 q 817 170 775 108 q 881 308 860 232 q 903 460 903 383 q 879 631 903 546 q 810 785 856 715 q 697 897 764 854 q 543 939 629 939 q 392 901 457 939 q 285 802 328 864 q 222 665 243 740 q 200 511 200 589 q 222 351 200 435 q 288 196 243 268 q 400 79 332 124 q 561 35 468 35 m 590 1056 l 389 1179 q 350 1217 358 1199 q 345 1249 342 1235 q 353 1269 349 1264 q 367 1281 356 1274 q 399 1288 379 1289 q 446 1263 419 1286 l 621 1096 l 590 1056 z "},"Ø":{"ha":1103,"x_min":63,"x_max":1040,"o":"m 849 1049 l 924 1001 l 268 -111 l 201 -69 l 849 1049 m 557 -22 q 331 22 425 -22 q 177 141 236 67 q 90 306 118 215 q 63 486 63 396 q 92 663 63 574 q 181 828 121 753 q 333 949 242 903 q 546 994 424 994 q 767 949 674 994 q 920 827 860 903 q 1010 663 981 751 q 1040 486 1040 574 q 1011 310 1040 400 q 922 145 982 221 q 771 24 861 69 q 557 -22 681 -22 m 560 35 q 710 72 646 35 q 816 170 774 108 q 880 308 858 232 q 901 460 901 383 q 878 631 901 546 q 808 785 854 715 q 695 897 763 854 q 542 939 628 939 q 391 901 456 939 q 284 802 326 864 q 220 665 242 740 q 199 511 199 589 q 220 351 199 435 q 286 196 242 268 q 399 79 331 124 q 560 35 467 35 z "},"Õ":{"ha":1103,"x_min":64,"x_max":1042,"o":"m 558 -22 q 332 22 426 -22 q 178 141 238 67 q 92 306 119 215 q 64 486 64 396 q 93 663 64 574 q 183 828 122 753 q 334 949 243 903 q 547 994 425 994 q 768 949 675 994 q 922 827 861 903 q 1012 663 982 751 q 1042 486 1042 574 q 1013 310 1042 400 q 923 145 983 221 q 772 24 863 69 q 558 -22 682 -22 m 561 35 q 711 72 647 35 q 817 170 775 108 q 881 308 860 232 q 903 460 903 383 q 879 631 903 546 q 810 785 856 715 q 697 897 764 854 q 543 939 629 939 q 392 901 457 939 q 285 802 328 864 q 222 665 243 740 q 200 511 200 589 q 222 351 200 435 q 288 196 243 268 q 400 79 332 124 q 561 35 468 35 m 808 1235 q 762 1144 789 1178 q 704 1094 735 1110 q 643 1079 674 1079 q 572 1094 603 1079 q 517 1128 542 1108 q 469 1163 492 1149 q 422 1178 447 1178 q 369 1156 392 1178 q 319 1094 346 1133 l 272 1121 q 341 1222 296 1182 q 429 1264 386 1263 q 500 1251 471 1265 q 553 1217 529 1236 q 600 1182 576 1197 q 651 1167 624 1167 q 716 1194 689 1167 q 764 1257 743 1221 l 808 1235 z "},"Œ":{"ha":1419,"x_min":64,"x_max":1357,"o":"m 1118 360 q 1101 447 1118 421 q 1049 479 1085 474 q 953 482 1013 485 l 849 476 l 849 168 q 848 104 849 131 q 844 60 847 78 l 1111 51 q 1217 70 1172 50 q 1285 140 1261 90 q 1310 271 1310 189 l 1357 271 l 1349 0 l 728 0 q 624 -17 672 -11 q 535 -22 575 -22 q 283 40 389 -22 q 121 211 178 103 q 64 457 64 319 q 93 649 64 556 q 182 820 122 743 q 333 944 242 897 q 551 994 425 992 q 639 988 592 994 q 728 972 686 982 l 1300 972 l 1307 729 l 1261 729 q 1236 853 1261 811 q 1169 910 1211 896 q 1074 924 1126 925 l 954 921 q 881 901 903 919 q 853 848 858 883 q 849 756 849 813 l 849 532 l 1113 532 q 1107 592 1110 563 q 1101 651 1104 621 l 1164 651 l 1164 360 l 1118 360 m 728 904 q 642 929 689 922 q 556 936 596 936 q 417 905 482 936 q 303 814 351 874 q 226 669 254 754 q 200 478 199 585 q 249 249 201 347 q 381 98 297 151 q 575 44 465 44 q 728 67 647 44 l 728 904 z "},"P":{"ha":842,"x_min":76,"x_max":808,"o":"m 76 46 q 149 70 129 49 q 170 130 168 92 q 172 217 172 168 l 172 817 q 174 870 172 844 q 176 917 175 896 q 126 914 151 915 q 76 911 101 913 l 76 972 q 228 974 150 974 q 386 975 306 975 q 613 944 521 975 q 753 854 704 914 q 806 706 801 794 q 790 592 808 651 q 720 481 771 533 q 578 397 669 429 q 343 365 486 365 q 322 365 338 365 q 293 367 307 365 l 293 165 q 292 101 293 128 q 289 56 292 74 q 332 58 311 57 q 374 60 353 60 q 417 63 396 61 l 417 0 l 76 0 l 76 46 m 293 424 q 338 420 319 421 q 383 419 357 419 q 528 451 463 419 q 632 540 593 482 q 671 679 671 599 q 650 791 671 744 q 591 866 629 838 q 500 908 553 894 q 383 921 447 921 q 316 900 335 921 q 295 842 297 879 q 293 756 293 806 l 293 424 z "},"Þ":{"ha":828,"x_min":76,"x_max":796,"o":"m 76 0 l 76 46 q 149 70 129 49 q 170 130 168 92 q 172 217 172 168 l 172 817 q 174 870 172 844 q 176 917 175 896 q 126 914 151 915 q 76 911 101 913 l 76 972 l 389 972 l 389 926 q 309 891 325 925 q 293 803 293 857 l 368 804 q 595 776 503 804 q 737 691 688 749 q 792 544 786 633 q 777 434 796 490 q 707 330 758 378 q 564 253 656 282 q 329 224 472 224 q 311 224 319 224 q 293 224 303 224 q 292 113 293 150 q 289 56 292 75 q 339 58 314 57 q 389 61 364 60 l 389 0 l 76 0 m 383 278 q 590 351 524 281 q 657 524 657 421 q 639 622 657 579 q 585 693 621 664 q 498 737 550 722 q 376 751 446 751 q 332 751 351 751 q 293 749 313 750 l 293 282 q 338 277 318 278 q 383 278 358 276 z "},"Q":{"ha":1106,"x_min":64,"x_max":1092,"o":"m 1047 -303 q 960 -299 997 -303 q 890 -280 924 -296 q 813 -225 856 -264 q 708 -122 750 -168 q 629 -49 665 -76 q 549 -22 593 -22 q 327 26 419 -19 q 176 144 235 71 q 91 308 118 218 q 64 486 64 397 q 93 663 64 574 q 183 828 122 753 q 334 949 243 903 q 547 994 425 994 q 768 949 675 994 q 922 827 861 903 q 1012 663 982 751 q 1042 486 1042 574 q 1019 331 1042 410 q 950 183 996 253 q 835 62 904 113 q 671 -10 765 11 q 735 -16 706 -10 q 797 -41 765 -22 q 869 -99 829 -60 q 951 -174 918 -143 q 1008 -222 985 -204 q 1051 -249 1032 -240 q 1092 -257 1071 -257 l 1092 -303 l 1047 -303 m 561 35 q 711 72 647 35 q 817 170 775 108 q 881 308 860 232 q 903 460 903 383 q 879 631 903 546 q 810 785 856 715 q 697 897 764 854 q 543 939 629 939 q 392 901 457 939 q 285 802 328 864 q 222 665 243 740 q 200 511 200 589 q 222 351 200 435 q 288 196 243 268 q 400 79 332 124 q 561 35 468 35 z "},"R":{"ha":872,"x_min":76,"x_max":872,"o":"m 76 0 l 76 46 q 149 70 129 49 q 170 130 168 92 q 172 217 172 168 l 172 817 q 174 870 172 844 q 176 917 175 896 q 126 914 151 915 q 76 911 101 913 l 76 972 q 234 975 154 974 q 394 974 314 976 q 612 942 529 972 q 733 858 694 913 q 772 725 772 803 q 752 615 774 671 q 674 514 731 558 q 513 447 618 469 q 561 397 540 428 q 608 326 582 367 l 703 178 q 749 110 726 140 q 800 63 771 81 q 872 46 829 46 l 872 0 l 697 0 q 630 72 657 36 q 574 154 603 108 l 481 303 q 440 370 463 332 q 388 435 417 408 q 341 433 365 433 q 293 435 317 433 l 293 165 q 292 101 293 128 q 289 56 292 74 q 322 58 306 57 q 356 60 339 58 q 389 61 372 61 l 389 0 l 76 0 m 379 486 q 513 511 456 489 q 604 582 571 533 q 638 710 638 631 q 623 802 638 763 q 578 868 608 842 q 500 908 547 894 q 389 921 453 921 q 317 900 338 921 q 295 842 297 879 q 293 756 293 806 l 293 489 q 335 486 315 488 q 379 486 356 485 z "},"S":{"ha":788,"x_min":81,"x_max":726,"o":"m 622 678 q 590 804 618 744 q 510 901 563 864 q 375 939 457 939 q 243 890 289 939 q 197 776 197 842 q 231 678 197 718 q 317 609 264 639 q 431 551 371 579 q 536 501 483 528 q 632 439 589 474 q 701 356 675 404 q 726 242 726 308 q 688 106 726 165 q 578 12 650 46 q 401 -22 506 -22 q 272 -4 339 -22 q 154 49 206 14 l 161 -11 l 89 -11 l 81 285 l 135 285 q 219 99 142 163 q 407 36 297 36 q 507 56 461 36 q 580 115 553 76 q 607 210 607 154 q 574 314 607 272 q 488 386 540 356 q 375 444 435 417 q 271 494 322 468 q 177 555 219 521 q 109 636 135 589 q 83 750 83 683 q 96 828 83 786 q 140 908 108 869 q 226 970 171 946 q 365 994 281 994 q 484 980 418 994 q 607 924 550 965 l 601 983 l 672 983 l 672 678 l 622 678 z "},"T":{"ha":889,"x_min":31,"x_max":857,"o":"m 804 679 q 788 815 803 761 q 734 897 772 869 q 624 922 696 924 l 506 922 l 504 165 q 503 101 504 128 q 500 56 503 74 q 558 58 529 57 q 615 61 586 60 l 615 0 l 289 0 l 289 46 q 360 71 342 49 q 381 131 379 93 q 383 217 383 169 l 385 921 l 242 919 q 118 861 154 919 q 82 679 82 803 l 31 679 l 39 972 l 849 972 l 857 679 l 804 679 z "},"U":{"ha":1044,"x_min":43,"x_max":1003,"o":"m 354 926 q 288 907 308 926 q 264 862 268 888 q 260 817 260 836 l 260 467 q 270 316 260 389 q 310 185 281 243 q 397 92 339 126 q 547 57 454 57 q 710 104 647 57 q 803 235 774 151 q 835 426 833 318 l 839 817 q 840 870 839 844 q 843 917 842 896 q 794 914 818 915 q 744 911 769 913 l 744 972 l 1003 972 l 1003 926 q 931 903 950 925 q 909 843 911 881 q 906 756 907 806 l 903 433 q 883 261 903 343 q 820 115 864 179 q 705 15 776 51 q 529 -22 633 -22 q 342 7 418 -22 q 222 97 267 36 q 157 251 176 158 q 138 474 138 344 l 138 756 q 140 841 138 792 q 143 917 142 890 q 93 915 118 915 q 43 913 68 914 l 43 972 l 354 972 l 354 926 z "},"Ú":{"ha":1044,"x_min":43,"x_max":1003,"o":"m 354 926 q 288 907 308 926 q 264 862 268 888 q 260 817 260 836 l 260 467 q 270 316 260 389 q 310 185 281 243 q 397 92 339 126 q 547 57 454 57 q 710 104 647 57 q 803 235 774 151 q 835 426 833 318 l 839 817 q 840 870 839 844 q 843 917 842 896 q 794 914 818 915 q 744 911 769 913 l 744 972 l 1003 972 l 1003 926 q 931 903 950 925 q 909 843 911 881 q 906 756 907 806 l 903 433 q 883 261 903 343 q 820 115 864 179 q 705 15 776 51 q 529 -22 633 -22 q 342 7 418 -22 q 222 97 267 36 q 157 251 176 158 q 138 474 138 344 l 138 756 q 140 841 138 792 q 143 917 142 890 q 93 915 118 915 q 43 913 68 914 l 43 972 l 354 972 l 354 926 m 490 1056 l 460 1096 l 635 1263 q 683 1288 663 1286 q 715 1281 703 1289 q 728 1269 726 1274 q 735 1249 732 1264 q 731 1217 739 1235 q 692 1179 724 1199 l 490 1056 z "},"Û":{"ha":1044,"x_min":43,"x_max":1003,"o":"m 354 926 q 288 907 308 926 q 264 862 268 888 q 260 817 260 836 l 260 467 q 270 316 260 389 q 310 185 281 243 q 397 92 339 126 q 547 57 454 57 q 710 104 647 57 q 803 235 774 151 q 835 426 833 318 l 839 817 q 840 870 839 844 q 843 917 842 896 q 794 914 818 915 q 744 911 769 913 l 744 972 l 1003 972 l 1003 926 q 931 903 950 925 q 909 843 911 881 q 906 756 907 806 l 903 433 q 883 261 903 343 q 820 115 864 179 q 705 15 776 51 q 529 -22 633 -22 q 342 7 418 -22 q 222 97 267 36 q 157 251 176 158 q 138 474 138 344 l 138 756 q 140 841 138 792 q 143 917 142 890 q 93 915 118 915 q 43 913 68 914 l 43 972 l 354 972 l 354 926 m 719 1056 l 540 1172 l 364 1056 l 329 1096 l 544 1293 l 547 1293 l 751 1097 l 719 1056 z "},"Ü":{"ha":1044,"x_min":43,"x_max":1003,"o":"m 354 926 q 288 907 308 926 q 264 862 268 888 q 260 817 260 836 l 260 467 q 270 316 260 389 q 310 185 281 243 q 397 92 339 126 q 547 57 454 57 q 710 104 647 57 q 803 235 774 151 q 835 426 833 318 l 839 817 q 840 870 839 844 q 843 917 842 896 q 794 914 818 915 q 744 911 769 913 l 744 972 l 1003 972 l 1003 926 q 931 903 950 925 q 909 843 911 881 q 906 756 907 806 l 903 433 q 883 261 903 343 q 820 115 864 179 q 705 15 776 51 q 529 -22 633 -22 q 342 7 418 -22 q 222 97 267 36 q 157 251 176 158 q 138 474 138 344 l 138 756 q 140 841 138 792 q 143 917 142 890 q 93 915 118 915 q 43 913 68 914 l 43 972 l 354 972 l 354 926 m 414 1078 q 361 1103 383 1078 q 339 1165 339 1129 q 362 1228 339 1203 q 415 1254 385 1254 q 469 1228 447 1254 q 490 1165 490 1203 q 467 1103 490 1129 q 414 1078 444 1078 m 664 1078 q 611 1103 633 1078 q 589 1165 589 1129 q 612 1228 589 1203 q 665 1254 635 1254 q 718 1228 697 1254 q 739 1165 739 1203 q 717 1103 739 1129 q 664 1078 694 1078 z "},"Ù":{"ha":1044,"x_min":43,"x_max":1003,"o":"m 354 926 q 288 907 308 926 q 264 862 268 888 q 260 817 260 836 l 260 467 q 270 316 260 389 q 310 185 281 243 q 397 92 339 126 q 547 57 454 57 q 710 104 647 57 q 803 235 774 151 q 835 426 833 318 l 839 817 q 840 870 839 844 q 843 917 842 896 q 794 914 818 915 q 744 911 769 913 l 744 972 l 1003 972 l 1003 926 q 931 903 950 925 q 909 843 911 881 q 906 756 907 806 l 903 433 q 883 261 903 343 q 820 115 864 179 q 705 15 776 51 q 529 -22 633 -22 q 342 7 418 -22 q 222 97 267 36 q 157 251 176 158 q 138 474 138 344 l 138 756 q 140 841 138 792 q 143 917 142 890 q 93 915 118 915 q 43 913 68 914 l 43 972 l 354 972 l 354 926 m 589 1056 l 388 1179 q 349 1217 357 1199 q 344 1249 340 1235 q 351 1269 347 1264 q 366 1281 354 1274 q 398 1288 378 1289 q 444 1263 418 1286 l 619 1096 l 589 1056 z "},"V":{"ha":907,"x_min":-6,"x_max":932,"o":"m 447 -14 l 132 725 q 89 840 101 796 q 72 914 76 883 q 33 913 53 913 q -6 911 14 913 l -6 972 l 317 972 l 315 925 q 232 883 246 921 q 246 775 218 844 q 310 617 279 693 q 378 451 340 540 q 442 302 411 374 q 490 183 474 231 l 493 183 q 524 276 508 232 q 563 382 540 321 q 633 579 604 499 q 682 717 661 660 q 717 814 703 774 q 739 875 729 850 q 757 917 749 900 q 704 914 731 915 q 650 911 678 913 l 650 972 l 932 972 l 932 926 q 838 894 871 924 q 779 790 806 865 q 772 772 776 783 q 758 733 768 760 q 731 656 749 707 q 681 519 713 606 q 602 303 650 433 q 486 -14 554 172 l 447 -14 z "},"W":{"ha":1382,"x_min":10,"x_max":1403,"o":"m 394 -14 l 146 725 q 108 841 122 799 q 88 914 94 883 q 49 913 68 913 q 10 911 29 913 l 10 972 l 347 972 l 347 926 q 251 890 267 922 q 257 775 235 858 q 308 610 281 683 q 363 451 336 536 q 402 336 382 389 q 443 218 422 283 l 446 218 q 460 268 453 242 q 476 319 468 294 q 492 366 485 344 q 503 401 499 388 q 580 641 542 525 q 647 845 618 757 q 688 975 676 933 l 732 975 q 768 858 744 929 q 818 710 792 788 q 867 563 844 632 q 904 451 890 493 q 945 328 924 389 q 985 201 967 267 l 989 201 q 1016 288 1001 242 q 1046 381 1031 333 q 1105 553 1082 483 q 1142 668 1128 622 q 1167 748 1157 714 q 1189 814 1178 782 q 1208 865 1197 838 q 1232 915 1218 892 q 1176 913 1204 914 q 1121 911 1149 913 l 1121 972 l 1403 972 l 1403 926 q 1328 906 1356 921 q 1281 849 1301 890 q 1231 721 1260 807 q 1106 349 1167 532 q 981 -14 1046 167 l 939 -14 l 728 589 q 703 660 715 625 q 679 729 692 694 q 656 660 668 694 q 633 590 644 625 l 435 -14 l 394 -14 z "},"X":{"ha":901,"x_min":13,"x_max":911,"o":"m 17 0 l 17 46 q 122 102 83 60 q 207 213 160 144 l 388 471 q 238 681 292 606 q 153 800 183 757 q 113 864 126 840 q 89 914 100 888 q 51 913 71 913 q 13 911 32 913 l 13 972 l 372 972 l 372 926 l 311 924 q 251 905 261 922 q 252 863 240 888 q 279 811 264 838 q 351 703 304 769 q 451 563 397 638 l 585 756 q 653 851 621 806 q 708 917 686 897 q 650 914 679 915 q 592 911 621 913 l 592 972 l 865 972 l 865 926 q 782 890 821 921 q 710 817 743 860 q 647 733 676 775 l 490 511 q 588 381 540 444 q 675 267 636 318 q 735 188 714 217 q 783 123 758 156 q 831 58 807 90 q 871 60 850 60 q 911 61 892 60 l 911 0 l 571 0 l 571 46 q 642 60 625 44 q 652 101 658 76 q 629 147 646 125 q 543 259 597 190 q 425 417 489 328 q 356 316 390 367 q 288 213 322 265 q 235 135 263 175 q 174 54 208 94 q 231 58 203 57 q 289 61 260 60 l 289 0 l 17 0 z "},"Y":{"ha":881,"x_min":-8,"x_max":894,"o":"m 299 0 l 299 46 q 370 71 351 49 q 391 131 389 93 q 393 217 393 169 l 394 375 l 153 757 q 101 850 118 813 q 78 914 83 888 q 35 913 56 913 q -8 911 14 913 l -8 972 l 350 972 l 350 926 q 261 907 286 926 q 242 853 236 888 q 276 775 249 819 l 388 600 q 414 560 400 581 q 442 517 428 539 q 474 472 457 496 l 476 472 q 507 531 492 503 q 536 586 522 560 l 654 810 q 672 842 661 824 q 694 881 682 861 q 721 915 707 901 q 667 913 694 914 q 611 911 639 913 l 611 972 l 894 972 l 894 926 q 783 879 826 922 q 690 747 739 836 q 599 576 643 658 q 515 417 556 494 q 515 350 515 392 q 514 266 514 308 q 514 194 514 224 q 514 165 514 165 q 513 101 514 128 q 510 56 513 74 q 567 58 539 57 q 625 61 596 60 l 625 0 l 299 0 z "},"Ý":{"ha":881,"x_min":-8,"x_max":894,"o":"m 299 0 l 299 46 q 370 71 351 49 q 391 131 389 93 q 393 217 393 169 l 394 375 l 153 757 q 101 850 118 813 q 78 914 83 888 q 35 913 56 913 q -8 911 14 913 l -8 972 l 350 972 l 350 926 q 261 907 286 926 q 242 853 236 888 q 276 775 249 819 l 388 600 q 414 560 400 581 q 442 517 428 539 q 474 472 457 496 l 476 472 q 507 531 492 503 q 536 586 522 560 l 654 810 q 672 842 661 824 q 694 881 682 861 q 721 915 707 901 q 667 913 694 914 q 611 911 639 913 l 611 972 l 894 972 l 894 926 q 783 879 826 922 q 690 747 739 836 q 599 576 643 658 q 515 417 556 494 q 515 350 515 392 q 514 266 514 308 q 514 194 514 224 q 514 165 514 165 q 513 101 514 128 q 510 56 513 74 q 567 58 539 57 q 625 61 596 60 l 625 0 l 299 0 m 411 1056 l 381 1096 l 556 1263 q 603 1288 583 1286 q 635 1281 624 1289 q 649 1269 647 1274 q 656 1249 653 1264 q 652 1217 660 1235 q 613 1179 644 1199 l 411 1056 z "},"Z":{"ha":847,"x_min":60,"x_max":781,"o":"m 60 0 l 60 64 q 259 348 138 174 q 553 796 381 522 q 594 859 572 828 q 642 921 615 890 l 288 915 q 165 858 206 913 q 124 685 124 804 l 76 685 l 85 972 l 774 972 l 774 924 l 275 167 q 224 97 244 122 q 181 51 203 71 l 518 57 q 672 113 610 58 q 733 285 733 168 l 781 285 l 772 0 l 60 0 z "},"a":{"ha":717,"x_min":47,"x_max":682,"o":"m 483 0 q 478 42 479 24 q 474 79 476 60 q 372 5 426 32 q 256 -22 317 -22 q 99 26 150 -22 q 47 143 47 74 q 87 253 47 207 q 190 330 126 300 q 327 374 253 360 q 471 388 401 389 l 471 474 q 463 565 471 522 q 426 636 454 608 q 338 665 399 664 q 255 650 297 667 q 193 593 213 633 q 208 567 204 582 q 211 540 211 553 q 197 502 211 524 q 149 482 183 481 q 104 502 119 482 q 89 550 89 522 q 124 635 89 597 q 222 694 160 672 q 364 717 285 717 q 536 655 481 717 q 590 460 592 593 q 590 356 590 408 q 590 252 590 304 q 589 147 589 200 q 588 103 589 125 q 583 53 586 81 q 633 56 608 54 q 682 58 657 57 l 682 0 l 483 0 m 471 340 q 372 328 424 339 q 276 297 319 318 q 205 242 232 276 q 179 160 178 208 q 213 83 182 108 q 288 57 244 57 q 387 78 344 57 q 471 139 429 100 q 469 172 469 154 q 469 210 469 190 q 470 254 469 217 q 471 340 471 292 z "},"á":{"ha":717,"x_min":47,"x_max":682,"o":"m 483 0 q 478 42 479 24 q 474 79 476 60 q 372 5 426 32 q 256 -22 317 -22 q 99 26 150 -22 q 47 143 47 74 q 87 253 47 207 q 190 330 126 300 q 327 374 253 360 q 471 388 401 389 l 471 474 q 463 565 471 522 q 426 636 454 608 q 338 665 399 664 q 255 650 297 667 q 193 593 213 633 q 208 567 204 582 q 211 540 211 553 q 197 502 211 524 q 149 482 183 481 q 104 502 119 482 q 89 550 89 522 q 124 635 89 597 q 222 694 160 672 q 364 717 285 717 q 536 655 481 717 q 590 460 592 593 q 590 356 590 408 q 590 252 590 304 q 589 147 589 200 q 588 103 589 125 q 583 53 586 81 q 633 56 608 54 q 682 58 657 57 l 682 0 l 483 0 m 471 340 q 372 328 424 339 q 276 297 319 318 q 205 242 232 276 q 179 160 178 208 q 213 83 182 108 q 288 57 244 57 q 387 78 344 57 q 471 139 429 100 q 469 172 469 154 q 469 210 469 190 q 470 254 469 217 q 471 340 471 292 m 275 851 l 236 883 l 353 1071 q 393 1106 374 1101 q 426 1106 413 1111 q 443 1097 440 1100 q 456 1079 449 1093 q 459 1045 463 1065 q 431 999 456 1025 l 275 851 z "},"â":{"ha":717,"x_min":47,"x_max":682,"o":"m 483 0 q 478 42 479 24 q 474 79 476 60 q 372 5 426 32 q 256 -22 317 -22 q 99 26 150 -22 q 47 143 47 74 q 87 253 47 207 q 190 330 126 300 q 327 374 253 360 q 471 388 401 389 l 471 474 q 463 565 471 522 q 426 636 454 608 q 338 665 399 664 q 255 650 297 667 q 193 593 213 633 q 208 567 204 582 q 211 540 211 553 q 197 502 211 524 q 149 482 183 481 q 104 502 119 482 q 89 550 89 522 q 124 635 89 597 q 222 694 160 672 q 364 717 285 717 q 536 655 481 717 q 590 460 592 593 q 590 356 590 408 q 590 252 590 304 q 589 147 589 200 q 588 103 589 125 q 583 53 586 81 q 633 56 608 54 q 682 58 657 57 l 682 0 l 483 0 m 471 340 q 372 328 424 339 q 276 297 319 318 q 205 242 232 276 q 179 160 178 208 q 213 83 182 108 q 288 57 244 57 q 387 78 344 57 q 471 139 429 100 q 469 172 469 154 q 469 210 469 190 q 470 254 469 217 q 471 340 471 292 m 526 856 l 350 1007 l 347 1007 l 168 865 l 133 906 l 354 1126 l 357 1126 l 564 900 l 526 856 z "},"ä":{"ha":717,"x_min":47,"x_max":682,"o":"m 483 0 q 478 42 479 24 q 474 79 476 60 q 372 5 426 32 q 256 -22 317 -22 q 99 26 150 -22 q 47 143 47 74 q 87 253 47 207 q 190 330 126 300 q 327 374 253 360 q 471 388 401 389 l 471 474 q 463 565 471 522 q 426 636 454 608 q 338 665 399 664 q 255 650 297 667 q 193 593 213 633 q 208 567 204 582 q 211 540 211 553 q 197 502 211 524 q 149 482 183 481 q 104 502 119 482 q 89 550 89 522 q 124 635 89 597 q 222 694 160 672 q 364 717 285 717 q 536 655 481 717 q 590 460 592 593 q 590 356 590 408 q 590 252 590 304 q 589 147 589 200 q 588 103 589 125 q 583 53 586 81 q 633 56 608 54 q 682 58 657 57 l 682 0 l 483 0 m 471 340 q 372 328 424 339 q 276 297 319 318 q 205 242 232 276 q 179 160 178 208 q 213 83 182 108 q 288 57 244 57 q 387 78 344 57 q 471 139 429 100 q 469 172 469 154 q 469 210 469 190 q 470 254 469 217 q 471 340 471 292 m 464 894 q 415 918 436 894 q 394 976 394 942 q 416 1035 394 1011 q 464 1060 438 1060 q 514 1035 494 1060 q 533 976 533 1011 q 513 918 533 942 q 464 894 492 894 m 232 894 q 183 918 204 894 q 163 976 163 942 q 184 1035 163 1011 q 232 1060 206 1060 q 282 1035 263 1060 q 301 976 301 1011 q 281 918 301 942 q 232 894 260 894 z "},"à":{"ha":717,"x_min":47,"x_max":682,"o":"m 483 0 q 478 42 479 24 q 474 79 476 60 q 372 5 426 32 q 256 -22 317 -22 q 99 26 150 -22 q 47 143 47 74 q 87 253 47 207 q 190 330 126 300 q 327 374 253 360 q 471 388 401 389 l 471 474 q 463 565 471 522 q 426 636 454 608 q 338 665 399 664 q 255 650 297 667 q 193 593 213 633 q 208 567 204 582 q 211 540 211 553 q 197 502 211 524 q 149 482 183 481 q 104 502 119 482 q 89 550 89 522 q 124 635 89 597 q 222 694 160 672 q 364 717 285 717 q 536 655 481 717 q 590 460 592 593 q 590 356 590 408 q 590 252 590 304 q 589 147 589 200 q 588 103 589 125 q 583 53 586 81 q 633 56 608 54 q 682 58 657 57 l 682 0 l 483 0 m 471 340 q 372 328 424 339 q 276 297 319 318 q 205 242 232 276 q 179 160 178 208 q 213 83 182 108 q 288 57 244 57 q 387 78 344 57 q 471 139 429 100 q 469 172 469 154 q 469 210 469 190 q 470 254 469 217 q 471 340 471 292 m 422 851 l 267 999 q 237 1044 240 1024 q 241 1079 233 1065 q 254 1097 249 1093 q 272 1106 258 1100 q 306 1108 286 1113 q 344 1071 325 1103 l 461 883 l 422 851 z "},"å":{"ha":717,"x_min":47,"x_max":682,"o":"m 483 0 q 478 42 479 24 q 474 79 476 60 q 372 5 426 32 q 256 -22 317 -22 q 99 26 150 -22 q 47 143 47 74 q 87 253 47 207 q 190 330 126 300 q 327 374 253 360 q 471 388 401 389 l 471 474 q 463 565 471 522 q 426 636 454 608 q 338 665 399 664 q 255 650 297 667 q 193 593 213 633 q 208 567 204 582 q 211 540 211 553 q 197 502 211 524 q 149 482 183 481 q 104 502 119 482 q 89 550 89 522 q 124 635 89 597 q 222 694 160 672 q 364 717 285 717 q 536 655 481 717 q 590 460 592 593 q 590 356 590 408 q 590 252 590 304 q 589 147 589 200 q 588 103 589 125 q 583 53 586 81 q 633 56 608 54 q 682 58 657 57 l 682 0 l 483 0 m 471 340 q 372 328 424 339 q 276 297 319 318 q 205 242 232 276 q 179 160 178 208 q 213 83 182 108 q 288 57 244 57 q 387 78 344 57 q 471 139 429 100 q 469 172 469 154 q 469 210 469 190 q 470 254 469 217 q 471 340 471 292 m 350 838 q 285 851 317 838 q 234 892 254 864 q 213 964 214 921 q 231 1037 211 1006 q 282 1085 250 1068 q 347 1103 314 1103 q 411 1090 381 1103 q 463 1049 442 1076 q 485 978 483 1021 q 466 903 486 935 q 415 855 446 872 q 350 838 383 838 m 354 881 q 395 904 379 882 q 411 963 411 926 q 394 1034 411 1007 q 347 1060 378 1061 q 303 1035 321 1058 q 286 976 286 1013 q 304 908 286 936 q 354 881 322 879 z "},"ã":{"ha":717,"x_min":47,"x_max":682,"o":"m 483 0 q 478 42 479 24 q 474 79 476 60 q 372 5 426 32 q 256 -22 317 -22 q 99 26 150 -22 q 47 143 47 74 q 87 253 47 207 q 190 330 126 300 q 327 374 253 360 q 471 388 401 389 l 471 474 q 463 565 471 522 q 426 636 454 608 q 338 665 399 664 q 255 650 297 667 q 193 593 213 633 q 208 567 204 582 q 211 540 211 553 q 197 502 211 524 q 149 482 183 481 q 104 502 119 482 q 89 550 89 522 q 124 635 89 597 q 222 694 160 672 q 364 717 285 717 q 536 655 481 717 q 590 460 592 593 q 590 356 590 408 q 590 252 590 304 q 589 147 589 200 q 588 103 589 125 q 583 53 586 81 q 633 56 608 54 q 682 58 657 57 l 682 0 l 483 0 m 471 340 q 372 328 424 339 q 276 297 319 318 q 205 242 232 276 q 179 160 178 208 q 213 83 182 108 q 288 57 244 57 q 387 78 344 57 q 471 139 429 100 q 469 172 469 154 q 469 210 469 190 q 470 254 469 217 q 471 340 471 292 m 582 1028 q 518 928 560 960 q 440 896 476 896 q 366 915 397 896 q 310 952 335 933 q 258 971 285 971 q 205 958 233 971 q 157 913 176 944 l 115 936 q 176 1019 133 985 q 257 1056 218 1054 q 331 1038 301 1057 q 385 1001 360 1019 q 440 982 410 982 q 498 1000 471 982 q 542 1049 525 1018 l 582 1028 z "},"æ":{"ha":1079,"x_min":47,"x_max":1022,"o":"m 250 -22 q 101 24 156 -22 q 47 139 47 69 q 86 249 47 203 q 188 326 125 296 q 324 369 250 356 q 467 382 397 383 l 467 467 q 458 562 467 517 q 422 636 450 607 q 329 665 393 665 q 245 643 283 665 q 192 583 207 621 q 206 560 201 575 q 210 538 210 546 q 197 500 210 522 q 150 479 183 478 q 108 497 124 479 q 92 546 92 515 q 123 627 92 588 q 213 692 154 667 q 350 717 271 717 q 468 685 419 717 q 542 597 517 653 q 638 683 581 650 q 768 717 694 717 q 894 686 839 717 q 981 588 949 656 q 1014 410 1014 521 l 590 401 q 608 209 582 288 q 683 90 633 131 q 796 49 732 49 q 907 82 861 49 q 988 164 953 115 l 1022 136 q 942 43 985 78 q 855 -7 900 8 q 763 -22 810 -22 q 618 9 682 -22 q 515 110 554 40 q 393 8 461 38 q 250 -22 325 -22 m 276 57 q 389 78 339 53 q 479 149 439 103 q 474 201 478 168 q 469 272 471 235 q 465 335 467 308 q 367 323 418 333 q 274 292 317 313 q 204 238 231 271 q 179 156 178 204 q 213 82 182 104 q 276 57 243 60 m 600 460 l 889 460 q 880 556 889 510 q 844 633 871 603 q 763 663 817 663 q 675 635 708 663 q 624 561 642 607 q 600 460 607 515 z "},"b":{"ha":808,"x_min":11,"x_max":750,"o":"m 106 868 q 106 910 106 890 q 110 958 107 931 q 60 956 85 957 q 11 953 36 954 l 11 1011 q 106 1017 72 1011 q 158 1031 140 1022 q 185 1049 175 1039 l 225 1049 l 225 635 q 317 695 264 674 q 435 717 371 717 q 595 674 524 717 q 708 551 667 631 q 750 364 750 472 q 699 159 750 246 q 565 25 647 72 q 389 -22 483 -22 q 285 -5 342 -22 q 185 63 229 13 l 151 0 l 103 0 l 106 868 m 225 218 q 249 105 225 144 q 310 50 272 65 q 389 35 347 35 q 504 72 456 35 q 580 176 553 110 q 607 329 607 242 q 583 495 607 424 q 513 608 560 567 q 393 649 465 649 q 302 627 347 649 q 225 569 257 606 l 225 218 z "},"c":{"ha":739,"x_min":57,"x_max":692,"o":"m 400 -22 q 228 20 307 -22 q 103 142 150 63 q 57 335 57 222 q 83 475 57 407 q 158 598 110 543 q 272 685 206 653 q 419 717 339 717 q 555 693 497 717 q 644 631 613 669 q 676 546 676 592 q 660 494 676 515 q 611 472 643 472 q 562 494 576 471 q 547 535 547 517 q 551 563 547 549 q 568 590 556 578 q 529 640 557 624 q 472 660 501 656 q 422 665 442 665 q 263 590 328 665 q 199 369 199 514 q 228 204 199 276 q 313 91 258 132 q 438 50 367 50 q 563 85 503 50 q 656 169 622 119 l 692 142 q 605 47 656 83 q 501 -6 554 11 q 400 -22 447 -22 z "},"ç":{"ha":739,"x_min":57,"x_max":692,"o":"m 400 -22 q 228 20 307 -22 q 103 142 150 63 q 57 335 57 222 q 83 475 57 407 q 158 598 110 543 q 272 685 206 653 q 419 717 339 717 q 555 693 497 717 q 644 631 613 669 q 676 546 676 592 q 660 494 676 515 q 611 472 643 472 q 562 494 576 471 q 547 535 547 517 q 551 563 547 549 q 568 590 556 578 q 529 640 557 624 q 472 660 501 656 q 422 665 442 665 q 263 590 328 665 q 199 369 199 514 q 228 204 199 276 q 313 91 258 132 q 438 50 367 50 q 563 85 503 50 q 656 169 622 119 l 692 142 q 605 47 656 83 q 501 -6 554 11 q 400 -22 447 -22 m 343 -335 l 335 -289 q 401 -272 371 -282 q 453 -249 431 -262 q 489 -219 476 -236 q 501 -182 501 -203 q 483 -146 501 -154 q 439 -142 464 -137 q 394 -161 414 -147 l 347 -139 l 388 11 l 465 11 l 428 -103 q 473 -85 447 -92 q 522 -79 499 -79 q 590 -104 565 -79 q 615 -171 615 -129 q 587 -242 615 -212 q 515 -290 558 -271 q 425 -319 471 -308 q 343 -335 379 -329 z "},"d":{"ha":831,"x_min":58,"x_max":789,"o":"m 358 -22 q 206 20 274 -22 q 98 142 138 63 q 58 328 58 221 q 104 529 58 442 q 231 667 150 617 q 415 717 313 717 q 506 705 461 717 q 578 678 551 693 l 578 868 q 578 910 578 890 q 582 958 579 931 q 533 956 557 957 q 483 953 508 954 l 483 1011 q 578 1017 544 1011 q 628 1031 611 1022 q 656 1049 646 1039 l 696 1049 l 696 147 q 694 103 696 125 q 690 53 693 81 q 740 56 715 54 q 789 58 764 57 l 789 0 l 590 0 q 584 38 586 21 q 581 72 582 56 q 485 3 542 29 q 358 -22 428 -22 m 408 46 q 501 72 454 46 q 578 138 547 99 q 576 173 576 154 q 576 214 576 192 l 578 614 q 505 651 544 639 q 424 663 465 663 q 303 622 354 663 q 225 510 251 582 q 201 340 199 438 q 228 189 204 256 q 298 84 253 122 q 408 46 343 46 z "},"ð":{"ha":776,"x_min":60,"x_max":699,"o":"m 360 -22 q 208 17 276 -22 q 100 131 140 57 q 60 308 60 206 q 80 449 60 382 q 138 570 100 517 q 232 655 176 624 q 357 689 288 686 q 468 671 410 692 q 560 597 526 650 l 563 597 q 519 714 549 653 q 445 832 490 775 q 338 929 400 889 l 253 822 l 203 864 l 283 960 q 217 985 253 975 q 143 997 182 994 l 149 1056 q 243 1042 199 1053 q 329 1013 288 1031 l 404 1101 l 444 1064 l 383 986 q 553 837 483 931 q 660 625 622 743 q 697 378 697 507 q 663 177 699 268 q 553 32 628 86 q 360 -22 478 -22 m 382 33 q 476 65 433 33 q 547 160 519 97 q 574 318 574 224 q 565 420 574 367 q 536 521 557 474 q 481 599 515 568 q 393 632 446 629 q 288 594 331 635 q 222 486 244 554 q 199 338 199 418 q 251 112 199 190 q 382 33 304 33 z "},"e":{"ha":753,"x_min":58,"x_max":699,"o":"m 397 -22 q 224 23 301 -22 q 103 151 147 68 q 58 346 58 233 q 102 528 58 443 q 225 665 146 613 q 408 717 304 717 q 517 698 467 717 q 607 641 568 679 q 668 545 646 603 q 690 410 690 488 l 201 401 q 224 216 201 296 q 299 92 247 136 q 431 49 350 49 q 519 64 474 49 q 603 106 564 79 q 665 164 642 132 l 699 136 q 608 43 661 78 q 500 -7 556 8 q 397 -22 444 -22 m 206 460 l 560 460 q 545 556 560 510 q 497 633 531 603 q 410 663 464 663 q 276 615 329 663 q 206 460 222 567 z "},"é":{"ha":753,"x_min":58,"x_max":699,"o":"m 397 -22 q 224 23 301 -22 q 103 151 147 68 q 58 346 58 233 q 102 528 58 443 q 225 665 146 613 q 408 717 304 717 q 517 698 467 717 q 607 641 568 679 q 668 545 646 603 q 690 410 690 488 l 201 401 q 224 216 201 296 q 299 92 247 136 q 431 49 350 49 q 519 64 474 49 q 603 106 564 79 q 665 164 642 132 l 699 136 q 608 43 661 78 q 500 -7 556 8 q 397 -22 444 -22 m 206 460 l 560 460 q 545 556 560 510 q 497 633 531 603 q 410 663 464 663 q 276 615 329 663 q 206 460 222 567 m 315 806 l 276 838 l 393 1025 q 433 1060 414 1056 q 467 1060 453 1065 q 483 1051 481 1054 q 496 1033 489 1047 q 499 999 503 1019 q 471 953 496 979 l 315 806 z "},"ê":{"ha":753,"x_min":58,"x_max":699,"o":"m 397 -22 q 224 23 301 -22 q 103 151 147 68 q 58 346 58 233 q 102 528 58 443 q 225 665 146 613 q 408 717 304 717 q 517 698 467 717 q 607 641 568 679 q 668 545 646 603 q 690 410 690 488 l 201 401 q 224 216 201 296 q 299 92 247 136 q 431 49 350 49 q 519 64 474 49 q 603 106 564 79 q 665 164 642 132 l 699 136 q 608 43 661 78 q 500 -7 556 8 q 397 -22 444 -22 m 206 460 l 560 460 q 545 556 560 510 q 497 633 531 603 q 410 663 464 663 q 276 615 329 663 q 206 460 222 567 m 567 810 l 390 961 l 388 961 l 208 819 l 174 860 l 394 1081 l 397 1081 l 604 854 l 567 810 z "},"ë":{"ha":753,"x_min":58,"x_max":699,"o":"m 397 -22 q 224 23 301 -22 q 103 151 147 68 q 58 346 58 233 q 102 528 58 443 q 225 665 146 613 q 408 717 304 717 q 517 698 467 717 q 607 641 568 679 q 668 545 646 603 q 690 410 690 488 l 201 401 q 224 216 201 296 q 299 92 247 136 q 431 49 350 49 q 519 64 474 49 q 603 106 564 79 q 665 164 642 132 l 699 136 q 608 43 661 78 q 500 -7 556 8 q 397 -22 444 -22 m 206 460 l 560 460 q 545 556 560 510 q 497 633 531 603 q 410 663 464 663 q 276 615 329 663 q 206 460 222 567 m 504 849 q 456 872 476 849 q 435 931 435 896 q 456 990 435 965 q 504 1014 478 1014 q 554 990 535 1014 q 574 931 574 965 q 553 872 574 896 q 504 849 532 849 m 272 849 q 224 872 244 849 q 203 931 203 896 q 224 990 203 965 q 272 1014 246 1014 q 322 990 303 1014 q 342 931 342 965 q 321 872 342 896 q 272 849 300 849 z "},"è":{"ha":753,"x_min":58,"x_max":699,"o":"m 397 -22 q 224 23 301 -22 q 103 151 147 68 q 58 346 58 233 q 102 528 58 443 q 225 665 146 613 q 408 717 304 717 q 517 698 467 717 q 607 641 568 679 q 668 545 646 603 q 690 410 690 488 l 201 401 q 224 216 201 296 q 299 92 247 136 q 431 49 350 49 q 519 64 474 49 q 603 106 564 79 q 665 164 642 132 l 699 136 q 608 43 661 78 q 500 -7 556 8 q 397 -22 444 -22 m 206 460 l 560 460 q 545 556 560 510 q 497 633 531 603 q 410 663 464 663 q 276 615 329 663 q 206 460 222 567 m 463 806 l 307 953 q 277 999 281 978 q 281 1033 274 1019 q 294 1051 289 1047 q 313 1060 299 1054 q 346 1062 326 1067 q 385 1025 365 1057 l 501 838 l 463 806 z "},"f":{"ha":469,"x_min":35,"x_max":547,"o":"m 149 724 q 205 967 149 878 q 399 1056 261 1056 q 463 1045 429 1056 q 522 1012 497 1035 q 547 953 547 989 q 533 908 547 926 q 490 890 518 890 q 444 910 457 889 q 431 947 431 932 q 432 964 431 956 q 438 982 433 972 q 410 1000 428 994 q 378 1006 393 1006 q 311 981 335 1006 q 278 918 288 956 q 268 840 268 881 l 268 694 l 456 694 l 456 640 l 268 636 l 269 147 q 269 98 269 119 q 264 53 268 76 q 308 55 286 54 q 351 57 329 56 l 351 0 l 68 0 l 68 42 q 128 63 111 42 q 147 123 144 85 q 150 211 150 161 l 149 635 l 35 632 l 35 694 l 149 694 l 149 724 z "},"g":{"ha":768,"x_min":49,"x_max":790,"o":"m 396 -376 q 194 -349 271 -376 q 83 -278 118 -321 q 49 -189 49 -235 q 69 -113 49 -146 q 119 -57 89 -81 q 176 -22 149 -33 q 106 19 132 -7 q 81 88 81 44 q 119 178 81 136 q 219 231 158 221 q 117 315 156 261 q 79 442 79 369 q 122 587 79 525 q 233 683 165 649 q 372 717 300 717 q 464 703 418 717 q 549 665 510 690 q 588 735 563 704 q 647 783 614 765 q 717 800 681 800 q 772 781 753 800 q 790 731 790 763 q 785 707 790 721 q 766 683 779 693 q 731 674 753 674 q 692 688 707 674 q 672 722 676 701 q 618 690 638 717 q 592 631 599 663 q 645 557 625 600 q 665 465 665 514 q 624 326 665 388 q 517 231 583 265 q 372 197 450 197 q 326 201 346 197 q 279 204 307 204 q 196 179 228 204 q 174 119 164 154 q 242 77 185 86 q 394 64 299 68 q 578 39 501 60 q 695 -26 654 18 q 736 -144 736 -69 q 706 -244 736 -200 q 627 -317 676 -287 q 517 -361 578 -346 q 396 -376 457 -376 m 394 -322 q 581 -278 514 -322 q 647 -174 647 -233 q 613 -95 647 -122 q 518 -58 578 -68 q 381 -46 458 -47 q 307 -42 343 -44 q 238 -35 271 -40 q 179 -96 200 -60 q 158 -172 158 -132 q 223 -281 158 -240 q 394 -322 288 -322 m 376 247 q 462 272 428 247 q 513 340 496 297 q 531 438 531 383 q 513 551 531 499 q 459 636 494 604 q 369 668 424 668 q 253 612 294 668 q 213 472 213 556 q 232 355 213 406 q 288 276 251 304 q 376 247 325 247 z "},"h":{"ha":832,"x_min":36,"x_max":790,"o":"m 507 42 q 567 63 550 42 q 586 123 583 85 q 589 211 589 161 l 589 406 q 551 585 589 525 q 431 643 513 644 q 330 618 379 642 q 250 557 281 594 l 250 147 q 249 98 250 119 q 243 53 247 76 q 287 55 265 54 q 331 57 308 56 l 331 0 l 47 0 l 47 42 q 107 63 90 42 q 127 123 124 85 q 131 211 131 161 l 131 868 q 131 910 131 890 q 135 958 132 931 q 85 956 110 957 q 36 953 61 954 l 36 1011 q 131 1017 97 1011 q 183 1031 165 1022 q 210 1049 200 1039 l 250 1049 l 250 625 q 319 672 281 651 q 398 704 357 692 q 478 717 439 717 q 652 641 599 717 q 707 406 706 565 l 708 147 q 708 98 708 119 q 703 53 707 76 q 747 55 725 54 q 790 57 768 56 l 790 0 l 507 0 l 507 42 z "},"i":{"ha":390,"x_min":50,"x_max":344,"o":"m 61 42 q 121 63 104 42 q 140 123 138 85 q 143 211 143 161 l 143 528 q 144 570 143 550 q 149 618 146 590 q 99 615 124 617 q 50 613 75 614 l 50 671 q 144 676 111 671 q 195 690 178 682 q 222 708 213 699 l 263 708 l 263 147 q 262 98 263 119 q 257 53 261 76 q 301 55 279 54 q 344 57 322 56 l 344 0 l 61 0 l 61 42 m 194 846 q 143 869 165 846 q 121 928 121 893 q 144 987 121 963 q 196 1011 167 1011 q 249 987 228 1011 q 271 928 271 963 q 248 869 271 893 q 194 846 225 846 z "},"ı":{"ha":390,"x_min":50,"x_max":344,"o":"m 61 42 q 121 63 104 42 q 140 123 138 85 q 143 211 143 161 l 143 528 q 144 570 143 550 q 149 618 146 590 q 99 615 124 617 q 50 613 75 614 l 50 671 q 144 676 111 671 q 195 690 178 682 q 222 708 213 699 l 263 708 l 263 147 q 262 98 263 119 q 257 53 261 76 q 301 55 279 54 q 344 57 322 56 l 344 0 l 61 0 l 61 42 z "},"í":{"ha":390,"x_min":50,"x_max":344,"o":"m 61 42 q 121 63 104 42 q 140 123 138 85 q 143 211 143 161 l 143 528 q 144 570 143 550 q 149 618 146 590 q 99 615 124 617 q 50 613 75 614 l 50 671 q 144 676 111 671 q 195 690 178 682 q 222 708 213 699 l 263 708 l 263 147 q 262 98 263 119 q 257 53 261 76 q 301 55 279 54 q 344 57 322 56 l 344 0 l 61 0 l 61 42 m 122 806 l 83 838 l 200 1025 q 240 1060 221 1056 q 274 1060 260 1065 q 290 1051 288 1054 q 303 1033 296 1047 q 306 999 310 1019 q 278 953 303 979 l 122 806 z "},"î":{"ha":390,"x_min":7,"x_max":374,"o":"m 61 42 q 121 63 104 42 q 140 123 138 85 q 143 211 143 161 l 143 528 q 144 570 143 550 q 149 618 146 590 q 99 615 124 617 q 50 613 75 614 l 50 671 q 144 676 111 671 q 195 690 178 682 q 222 708 213 699 l 263 708 l 263 147 q 262 98 263 119 q 257 53 261 76 q 301 55 279 54 q 344 57 322 56 l 344 0 l 61 0 l 61 42 m 194 1081 l 197 1081 l 374 854 l 335 815 l 192 949 l 189 949 l 50 819 l 7 860 l 194 1081 z "},"ï":{"ha":390,"x_min":10,"x_max":381,"o":"m 61 42 q 121 63 104 42 q 140 123 138 85 q 143 211 143 161 l 143 528 q 144 570 143 550 q 149 618 146 590 q 99 615 124 617 q 50 613 75 614 l 50 671 q 144 676 111 671 q 195 690 178 682 q 222 708 213 699 l 263 708 l 263 147 q 262 98 263 119 q 257 53 261 76 q 301 55 279 54 q 344 57 322 56 l 344 0 l 61 0 l 61 42 m 311 849 q 263 872 283 849 q 242 931 242 896 q 263 990 242 965 q 311 1014 285 1014 q 361 990 342 1014 q 381 931 381 965 q 360 872 381 896 q 311 849 339 849 m 79 849 q 31 872 51 849 q 10 931 10 896 q 31 990 10 965 q 79 1014 53 1014 q 129 990 110 1014 q 149 931 149 965 q 128 872 149 896 q 79 849 107 849 z "},"ì":{"ha":390,"x_min":50,"x_max":344,"o":"m 61 42 q 121 63 104 42 q 140 123 138 85 q 143 211 143 161 l 143 528 q 144 570 143 550 q 149 618 146 590 q 99 615 124 617 q 50 613 75 614 l 50 671 q 144 676 111 671 q 195 690 178 682 q 222 708 213 699 l 263 708 l 263 147 q 262 98 263 119 q 257 53 261 76 q 301 55 279 54 q 344 57 322 56 l 344 0 l 61 0 l 61 42 m 269 806 l 114 953 q 84 999 88 978 q 88 1033 81 1019 q 101 1051 96 1047 q 119 1060 106 1054 q 153 1062 133 1067 q 192 1025 172 1057 l 308 838 l 269 806 z "},"j":{"ha":363,"x_min":-122,"x_max":260,"o":"m -12 -376 q -96 -353 -69 -376 q -122 -299 -122 -329 q -106 -253 -122 -274 q -62 -233 -90 -233 q -15 -253 -28 -232 q -1 -292 -1 -275 q -1 -298 -1 -294 q -3 -304 -1 -301 q 33 -312 17 -312 q 94 -283 74 -312 q 122 -210 115 -254 q 129 -119 129 -165 l 132 528 q 133 570 132 550 q 136 618 133 590 q 87 615 111 617 q 38 613 63 614 l 38 671 q 133 676 99 671 q 184 690 167 682 q 211 708 201 699 l 251 708 l 251 -4 q 217 -216 251 -133 q 122 -337 182 -299 q -12 -376 63 -376 m 183 846 q 132 869 154 846 q 110 928 110 893 q 133 987 110 963 q 185 1011 156 1011 q 238 987 217 1011 q 260 928 260 963 q 237 869 260 893 q 183 846 214 846 z "},"k":{"ha":746,"x_min":36,"x_max":736,"o":"m 49 0 l 49 42 q 108 63 92 42 q 126 123 124 85 q 129 211 129 161 l 131 868 q 131 910 131 890 q 135 958 132 931 q 85 956 110 957 q 36 953 61 954 l 36 1011 q 131 1017 97 1011 q 181 1031 164 1022 q 208 1049 199 1039 l 249 1049 l 249 392 l 304 392 l 474 569 q 517 612 497 593 q 556 643 536 631 l 461 639 l 461 694 l 714 694 l 714 653 q 626 623 667 649 q 551 565 585 597 q 492 507 517 533 l 383 393 q 431 361 411 381 q 469 318 450 342 l 568 192 q 592 160 575 183 q 634 108 610 136 q 685 61 658 81 q 736 42 713 42 l 736 0 l 610 0 q 536 40 571 0 q 463 131 501 81 q 398 222 426 181 q 347 293 369 263 q 306 340 324 324 l 249 338 l 249 147 q 248 98 249 119 q 243 53 247 76 q 288 55 265 54 q 332 57 310 56 l 332 0 l 49 0 z "},"l":{"ha":378,"x_min":35,"x_max":331,"o":"m 47 42 q 107 63 90 42 q 126 123 124 85 q 129 211 129 161 l 129 868 q 130 910 129 890 q 133 958 131 931 q 84 956 108 957 q 35 953 60 954 l 35 1011 q 130 1017 96 1011 q 181 1031 164 1022 q 208 1049 199 1039 l 249 1049 l 250 147 q 249 98 250 119 q 243 53 247 76 q 287 55 265 54 q 331 57 308 56 l 331 0 l 47 0 l 47 42 z "},"m":{"ha":1242,"x_min":50,"x_max":1197,"o":"m 61 0 l 61 42 q 121 63 104 42 q 140 123 138 85 q 143 211 143 161 l 143 528 q 144 572 143 550 q 149 618 144 594 q 99 615 124 617 q 50 613 75 614 l 50 671 q 142 676 111 671 q 189 690 174 682 q 214 708 204 699 l 254 708 q 258 676 257 694 q 260 635 258 658 q 356 694 301 671 q 464 717 410 717 q 581 692 533 717 q 654 624 628 667 q 763 690 701 663 q 885 717 825 717 q 1063 644 1006 717 q 1117 406 1119 571 l 1115 147 q 1115 98 1115 119 q 1110 53 1114 76 q 1153 55 1132 54 q 1197 57 1175 56 l 1197 0 l 914 0 l 914 42 q 974 63 957 42 q 993 123 990 85 q 996 211 996 161 l 996 406 q 958 585 996 525 q 838 643 919 644 q 751 624 794 643 q 676 575 708 604 q 687 527 683 553 q 690 474 690 501 q 689 311 689 393 q 688 147 689 229 q 687 98 688 119 q 682 53 686 76 q 726 55 704 54 q 769 57 747 56 l 769 0 l 486 0 l 486 42 q 545 63 529 42 q 565 123 561 85 q 568 211 568 161 l 569 406 q 535 586 571 525 q 417 646 499 647 q 332 627 374 646 q 261 579 290 608 q 262 544 261 563 q 263 504 263 525 l 263 147 q 262 98 263 119 q 257 53 261 76 q 301 55 279 54 q 344 57 322 56 l 344 0 l 61 0 z "},"n":{"ha":843,"x_min":51,"x_max":801,"o":"m 61 0 l 61 42 q 121 63 104 42 q 140 123 138 85 q 143 211 143 161 l 144 528 q 145 572 144 550 q 150 618 146 594 q 101 615 125 617 q 51 613 76 614 l 51 671 q 144 676 113 671 q 190 690 175 682 q 215 708 206 699 l 256 708 q 258 686 257 699 q 260 658 258 674 q 261 624 261 643 q 328 671 292 650 q 406 704 365 692 q 488 717 447 717 q 664 641 608 717 q 719 406 719 565 l 719 147 q 719 98 719 119 q 714 53 718 76 q 758 55 736 54 q 801 57 779 56 l 801 0 l 518 0 l 518 42 q 578 63 561 42 q 597 123 594 85 q 600 211 600 161 l 600 406 q 560 586 599 525 q 440 646 522 647 q 342 619 390 644 q 263 556 294 594 q 264 531 264 544 q 264 501 264 517 l 263 147 q 262 98 263 119 q 257 53 261 76 q 301 55 279 54 q 344 57 322 56 l 344 0 l 61 0 z "},"ñ":{"ha":843,"x_min":51,"x_max":801,"o":"m 61 0 l 61 42 q 121 63 104 42 q 140 123 138 85 q 143 211 143 161 l 144 528 q 145 572 144 550 q 150 618 146 594 q 101 615 125 617 q 51 613 76 614 l 51 671 q 144 676 113 671 q 190 690 175 682 q 215 708 206 699 l 256 708 q 258 686 257 699 q 260 658 258 674 q 261 624 261 643 q 328 671 292 650 q 406 704 365 692 q 488 717 447 717 q 664 641 608 717 q 719 406 719 565 l 719 147 q 719 98 719 119 q 714 53 718 76 q 758 55 736 54 q 801 57 779 56 l 801 0 l 518 0 l 518 42 q 578 63 561 42 q 597 123 594 85 q 600 211 600 161 l 600 406 q 560 586 599 525 q 440 646 522 647 q 342 619 390 644 q 263 556 294 594 q 264 531 264 544 q 264 501 264 517 l 263 147 q 262 98 263 119 q 257 53 261 76 q 301 55 279 54 q 344 57 322 56 l 344 0 l 61 0 m 676 982 q 613 882 654 914 q 535 850 571 850 q 460 869 492 850 q 404 906 429 888 q 353 925 379 925 q 299 912 328 925 q 251 867 271 899 l 210 890 q 270 974 228 939 q 351 1010 313 1008 q 425 992 396 1011 q 479 955 454 974 q 535 936 504 936 q 592 954 565 936 q 636 1003 619 972 l 676 982 z "},"o":{"ha":813,"x_min":57,"x_max":756,"o":"m 406 -22 q 229 23 308 -22 q 103 148 150 68 q 57 331 57 228 q 103 528 57 440 q 228 666 149 615 q 406 717 307 717 q 582 670 503 717 q 708 544 661 624 q 756 364 756 465 q 709 169 756 257 q 583 29 663 81 q 406 -22 504 -22 m 417 33 q 533 75 490 33 q 595 183 576 117 q 614 324 614 250 q 602 447 614 386 q 565 556 590 507 q 501 635 540 606 q 406 664 461 664 q 288 622 333 664 q 220 514 242 581 q 199 371 199 447 q 222 208 199 285 q 294 82 246 131 q 417 33 343 33 z "},"ó":{"ha":813,"x_min":57,"x_max":756,"o":"m 406 -22 q 229 23 308 -22 q 103 148 150 68 q 57 331 57 228 q 103 528 57 440 q 228 666 149 615 q 406 717 307 717 q 582 670 503 717 q 708 544 661 624 q 756 364 756 465 q 709 169 756 257 q 583 29 663 81 q 406 -22 504 -22 m 417 33 q 533 75 490 33 q 595 183 576 117 q 614 324 614 250 q 602 447 614 386 q 565 556 590 507 q 501 635 540 606 q 406 664 461 664 q 288 622 333 664 q 220 514 242 581 q 199 371 199 447 q 222 208 199 285 q 294 82 246 131 q 417 33 343 33 m 332 806 l 293 838 l 410 1025 q 450 1060 431 1056 q 483 1060 469 1065 q 500 1051 497 1054 q 513 1033 506 1047 q 516 999 519 1019 q 488 953 513 979 l 332 806 z "},"ô":{"ha":813,"x_min":57,"x_max":756,"o":"m 406 -22 q 229 23 308 -22 q 103 148 150 68 q 57 331 57 228 q 103 528 57 440 q 228 666 149 615 q 406 717 307 717 q 582 670 503 717 q 708 544 661 624 q 756 364 756 465 q 709 169 756 257 q 583 29 663 81 q 406 -22 504 -22 m 417 33 q 533 75 490 33 q 595 183 576 117 q 614 324 614 250 q 602 447 614 386 q 565 556 590 507 q 501 635 540 606 q 406 664 461 664 q 288 622 333 664 q 220 514 242 581 q 199 371 199 447 q 222 208 199 285 q 294 82 246 131 q 417 33 343 33 m 583 810 l 407 961 l 404 961 l 225 819 l 190 860 l 411 1081 l 414 1081 l 621 854 l 583 810 z "},"ö":{"ha":813,"x_min":57,"x_max":756,"o":"m 406 -22 q 229 23 308 -22 q 103 148 150 68 q 57 331 57 228 q 103 528 57 440 q 228 666 149 615 q 406 717 307 717 q 582 670 503 717 q 708 544 661 624 q 756 364 756 465 q 709 169 756 257 q 583 29 663 81 q 406 -22 504 -22 m 417 33 q 533 75 490 33 q 595 183 576 117 q 614 324 614 250 q 602 447 614 386 q 565 556 590 507 q 501 635 540 606 q 406 664 461 664 q 288 622 333 664 q 220 514 242 581 q 199 371 199 447 q 222 208 199 285 q 294 82 246 131 q 417 33 343 33 m 521 849 q 472 872 493 849 q 451 931 451 896 q 473 990 451 965 q 521 1014 494 1014 q 571 990 551 1014 q 590 931 590 965 q 569 872 590 896 q 521 849 549 849 m 289 849 q 240 872 261 849 q 219 931 219 896 q 241 990 219 965 q 289 1014 263 1014 q 339 990 319 1014 q 358 931 358 965 q 338 872 358 896 q 289 849 317 849 z "},"ò":{"ha":813,"x_min":57,"x_max":756,"o":"m 406 -22 q 229 23 308 -22 q 103 148 150 68 q 57 331 57 228 q 103 528 57 440 q 228 666 149 615 q 406 717 307 717 q 582 670 503 717 q 708 544 661 624 q 756 364 756 465 q 709 169 756 257 q 583 29 663 81 q 406 -22 504 -22 m 417 33 q 533 75 490 33 q 595 183 576 117 q 614 324 614 250 q 602 447 614 386 q 565 556 590 507 q 501 635 540 606 q 406 664 461 664 q 288 622 333 664 q 220 514 242 581 q 199 371 199 447 q 222 208 199 285 q 294 82 246 131 q 417 33 343 33 m 479 806 l 324 953 q 294 999 297 978 q 298 1033 290 1019 q 311 1051 306 1047 q 329 1060 315 1054 q 363 1062 343 1067 q 401 1025 382 1057 l 518 838 l 479 806 z "},"ø":{"ha":813,"x_min":57,"x_max":756,"o":"m 163 -104 l 111 -67 l 647 785 l 713 742 l 163 -104 m 406 -22 q 229 23 308 -22 q 103 148 150 68 q 57 331 57 228 q 103 528 57 440 q 228 666 149 615 q 406 717 307 717 q 582 670 503 717 q 708 544 661 624 q 756 364 756 465 q 709 169 756 257 q 583 29 663 81 q 406 -22 504 -22 m 417 33 q 533 75 490 33 q 595 183 576 117 q 614 324 614 250 q 602 447 614 386 q 565 556 590 507 q 501 635 540 606 q 406 664 461 664 q 288 622 333 664 q 220 514 242 581 q 199 371 199 447 q 222 208 199 285 q 294 82 246 131 q 417 33 343 33 z "},"õ":{"ha":813,"x_min":57,"x_max":756,"o":"m 406 -22 q 229 23 308 -22 q 103 148 150 68 q 57 331 57 228 q 103 528 57 440 q 228 666 149 615 q 406 717 307 717 q 582 670 503 717 q 708 544 661 624 q 756 364 756 465 q 709 169 756 257 q 583 29 663 81 q 406 -22 504 -22 m 417 33 q 533 75 490 33 q 595 183 576 117 q 614 324 614 250 q 602 447 614 386 q 565 556 590 507 q 501 635 540 606 q 406 664 461 664 q 288 622 333 664 q 220 514 242 581 q 199 371 199 447 q 222 208 199 285 q 294 82 246 131 q 417 33 343 33 m 639 982 q 575 882 617 914 q 497 850 533 850 q 423 869 454 850 q 367 906 392 888 q 315 925 342 925 q 262 912 290 925 q 214 867 233 899 l 172 890 q 233 974 190 939 q 314 1010 275 1008 q 388 992 358 1011 q 442 955 417 974 q 497 936 467 936 q 555 954 528 936 q 599 1003 582 972 l 639 982 z "},"œ":{"ha":1226,"x_min":57,"x_max":1172,"o":"m 385 -22 q 214 23 288 -22 q 99 148 140 68 q 57 331 57 228 q 98 528 57 440 q 213 666 139 615 q 385 717 286 717 q 531 678 468 717 q 638 569 594 640 l 639 569 q 744 674 679 632 q 893 717 810 717 q 999 698 951 717 q 1083 640 1047 679 q 1138 544 1118 601 q 1157 408 1157 486 l 704 400 q 725 215 704 294 q 794 92 746 136 q 919 49 842 49 q 1044 82 985 49 q 1138 164 1103 115 l 1172 136 q 1085 43 1135 78 q 985 -7 1036 8 q 886 -22 933 -22 q 737 14 806 -22 q 629 119 668 50 l 628 119 q 526 17 588 56 q 385 -22 464 -22 m 394 33 q 488 61 451 33 q 542 134 524 89 q 568 235 561 179 q 575 344 575 290 q 560 467 572 410 q 526 569 549 525 q 469 639 504 614 q 386 664 435 664 q 276 622 317 664 q 217 514 235 581 q 199 371 199 447 q 218 208 199 285 q 281 82 238 131 q 394 33 324 33 m 708 458 l 1026 458 q 1012 558 1025 511 q 969 633 999 604 q 886 663 939 663 q 767 612 811 665 q 708 458 724 558 z "},"p":{"ha":829,"x_min":40,"x_max":771,"o":"m 49 -354 l 49 -312 q 108 -291 92 -312 q 128 -231 125 -269 q 131 -143 131 -193 l 133 528 q 134 572 133 550 q 139 618 135 594 q 90 615 114 617 q 40 613 65 614 l 40 671 q 133 676 101 671 q 178 690 164 682 q 203 708 193 699 l 244 708 q 247 676 246 694 q 250 633 249 657 q 349 694 292 671 q 465 717 407 717 q 615 675 546 717 q 728 556 685 633 q 771 372 771 479 q 722 165 771 254 q 592 27 672 76 q 417 -22 511 -22 q 327 -10 368 -22 q 250 24 286 1 l 250 -207 q 249 -256 250 -235 q 244 -301 249 -278 q 288 -299 267 -300 q 332 -297 310 -299 l 332 -354 l 49 -354 m 414 33 q 528 74 481 33 q 602 187 576 115 q 628 350 628 258 q 606 494 628 425 q 538 606 585 563 q 415 649 492 649 q 324 626 368 649 q 251 571 281 603 q 252 555 251 565 q 253 519 253 544 q 253 442 253 493 q 252 306 253 392 q 251 88 251 219 q 327 47 286 61 q 414 33 368 33 z "},"þ":{"ha":801,"x_min":13,"x_max":742,"o":"m 21 -354 l 21 -312 q 81 -291 64 -312 q 100 -231 97 -269 q 103 -143 103 -193 l 106 868 q 106 913 106 890 q 111 958 107 935 q 62 956 86 957 q 13 953 38 954 l 13 1011 q 107 1017 74 1011 q 157 1031 140 1022 q 183 1049 174 1039 l 224 1049 l 222 642 q 319 697 265 676 q 432 717 374 717 q 587 674 517 717 q 699 553 657 632 q 742 367 742 475 q 693 161 742 249 q 565 26 644 74 q 388 -22 485 -22 q 298 -12 339 -22 q 222 21 257 -1 l 222 -207 q 222 -256 222 -235 q 217 -301 221 -278 q 260 -299 239 -300 q 304 -297 282 -299 l 304 -354 l 21 -354 m 385 33 q 499 74 451 33 q 573 184 547 114 q 599 346 599 254 q 576 490 599 421 q 508 604 554 560 q 385 649 461 649 q 295 629 338 649 q 222 578 253 610 l 222 86 q 298 47 257 60 q 385 33 339 33 z "},"q":{"ha":800,"x_min":58,"x_max":779,"o":"m 496 -354 l 496 -312 q 556 -291 539 -312 q 575 -231 572 -269 q 578 -143 578 -193 l 578 65 q 489 1 542 24 q 369 -22 436 -22 q 213 22 283 -22 q 100 145 142 65 q 58 332 58 225 q 106 535 58 449 q 235 669 154 621 q 415 717 317 717 q 522 701 474 717 q 604 686 569 686 q 633 691 619 686 q 657 708 646 696 l 696 708 l 697 -207 q 697 -256 697 -235 q 692 -301 696 -278 q 735 -299 714 -300 q 779 -297 757 -299 l 779 -354 l 496 -354 m 419 46 q 508 71 465 46 q 578 135 550 96 l 578 499 q 563 591 578 554 q 513 647 547 628 q 418 665 478 665 q 303 628 351 665 q 228 523 254 590 q 201 365 201 456 q 227 204 201 276 q 302 89 253 132 q 419 46 351 46 z "},"r":{"ha":601,"x_min":50,"x_max":592,"o":"m 61 42 q 121 63 104 42 q 140 123 138 85 q 143 211 143 161 l 143 528 q 144 572 143 550 q 149 618 144 594 q 99 616 124 617 q 50 614 75 615 l 50 671 l 93 671 q 176 683 153 671 q 214 708 199 694 l 254 708 q 258 653 257 686 q 261 571 260 621 q 318 639 282 606 q 399 694 354 672 q 494 717 444 717 q 563 696 533 717 q 592 629 592 675 q 585 602 592 618 q 563 574 578 586 q 522 563 547 563 q 474 587 492 564 q 460 640 456 610 q 388 622 425 642 q 319 569 351 603 q 263 489 288 535 l 264 147 q 263 98 264 119 q 258 53 263 76 q 302 55 281 54 q 346 57 324 56 l 346 0 l 61 0 l 61 42 z "},"s":{"ha":643,"x_min":72,"x_max":586,"o":"m 346 -22 q 222 -3 276 -22 q 133 39 168 15 l 139 -10 l 81 -10 l 72 229 l 115 229 q 147 127 118 172 q 222 57 176 82 q 321 32 268 32 q 392 44 357 32 q 450 80 426 56 q 474 142 474 104 q 451 206 474 181 q 390 251 428 232 q 310 288 353 271 q 226 322 268 304 q 149 365 185 340 q 93 426 114 390 q 72 515 72 463 q 83 579 72 544 q 121 645 94 614 q 193 697 147 676 q 310 717 239 717 q 393 704 347 717 q 482 657 439 692 l 479 710 l 538 710 l 538 467 l 493 467 q 471 560 490 515 q 414 635 451 606 q 317 665 376 665 q 217 633 253 665 q 181 560 181 601 q 208 488 181 517 q 278 439 235 460 q 369 399 321 418 q 472 350 422 376 q 554 284 522 324 q 586 182 586 244 q 551 67 586 113 q 460 -1 515 21 q 346 -22 406 -22 z "},"ß":{"ha":946,"x_min":35,"x_max":907,"o":"m 671 -22 q 594 -11 640 -22 q 511 22 547 0 l 515 -11 l 457 -11 l 449 228 l 492 228 q 542 87 497 142 q 668 32 588 32 q 753 60 715 32 q 790 144 790 89 q 745 231 790 199 q 642 292 700 264 q 544 343 593 315 q 464 412 496 371 q 432 515 432 453 q 497 665 432 610 q 685 717 563 719 q 665 874 686 817 q 610 957 643 931 q 541 990 576 983 q 478 996 506 996 q 345 946 390 994 q 284 816 300 897 q 268 636 268 735 l 269 147 q 269 98 269 119 q 264 53 268 76 q 308 55 286 54 q 351 57 329 56 l 351 0 l 68 0 l 68 42 q 128 63 111 42 q 147 123 144 85 q 150 211 150 161 l 149 635 l 35 632 l 35 694 l 149 694 q 186 880 149 799 q 298 1008 224 961 q 483 1056 372 1056 q 593 1040 543 1056 q 683 997 643 1025 q 750 930 722 969 q 792 842 778 890 q 807 739 807 794 q 805 702 807 721 q 800 664 803 683 q 726 667 769 667 q 640 660 682 668 q 569 630 597 653 q 542 560 542 607 q 565 494 542 522 q 624 443 588 465 q 703 400 661 421 q 799 347 751 375 q 876 281 846 319 q 907 183 907 242 q 877 68 907 114 q 794 0 847 22 q 671 -22 742 -22 z "},"t":{"ha":538,"x_min":29,"x_max":532,"o":"m 322 -22 q 257 -13 290 -22 q 195 22 224 -4 q 150 99 167 49 q 133 233 133 150 l 136 636 l 29 635 l 29 694 q 103 722 65 696 q 170 792 140 747 q 211 889 200 836 l 258 889 l 258 694 l 492 694 l 492 640 l 258 638 l 256 251 q 266 145 256 189 q 300 79 276 101 q 361 57 324 57 q 434 79 400 57 q 494 140 468 101 l 532 110 q 472 38 501 64 q 414 -2 442 11 q 363 -19 386 -15 q 322 -22 339 -22 z "},"u":{"ha":829,"x_min":36,"x_max":789,"o":"m 354 -22 q 228 6 279 -22 q 152 100 178 33 q 126 281 126 167 l 126 528 q 127 572 126 550 q 132 618 128 594 q 84 616 108 617 q 36 614 60 615 l 36 671 l 79 671 q 166 683 139 671 q 208 708 193 694 l 249 708 l 249 285 q 283 106 249 165 q 399 49 317 47 q 499 81 451 50 q 576 156 547 113 l 576 513 q 578 570 576 546 q 583 618 579 594 q 533 616 558 617 q 483 614 508 615 l 483 671 l 526 671 q 613 683 586 671 q 656 708 640 694 l 696 708 l 694 183 q 693 121 694 161 q 689 53 692 81 q 739 56 714 54 q 789 58 764 57 l 789 0 l 590 0 q 584 44 586 24 q 581 83 582 65 q 476 9 538 40 q 354 -22 415 -22 z "},"ú":{"ha":829,"x_min":36,"x_max":789,"o":"m 354 -22 q 228 6 279 -22 q 152 100 178 33 q 126 281 126 167 l 126 528 q 127 572 126 550 q 132 618 128 594 q 84 616 108 617 q 36 614 60 615 l 36 671 l 79 671 q 166 683 139 671 q 208 708 193 694 l 249 708 l 249 285 q 283 106 249 165 q 399 49 317 47 q 499 81 451 50 q 576 156 547 113 l 576 513 q 578 570 576 546 q 583 618 579 594 q 533 616 558 617 q 483 614 508 615 l 483 671 l 526 671 q 613 683 586 671 q 656 708 640 694 l 696 708 l 694 183 q 693 121 694 161 q 689 53 692 81 q 739 56 714 54 q 789 58 764 57 l 789 0 l 590 0 q 584 44 586 24 q 581 83 582 65 q 476 9 538 40 q 354 -22 415 -22 m 338 806 l 299 838 l 415 1025 q 456 1060 436 1056 q 489 1060 475 1065 q 506 1051 503 1054 q 518 1033 511 1047 q 522 999 525 1019 q 493 953 518 979 l 338 806 z "},"û":{"ha":829,"x_min":36,"x_max":789,"o":"m 354 -22 q 228 6 279 -22 q 152 100 178 33 q 126 281 126 167 l 126 528 q 127 572 126 550 q 132 618 128 594 q 84 616 108 617 q 36 614 60 615 l 36 671 l 79 671 q 166 683 139 671 q 208 708 193 694 l 249 708 l 249 285 q 283 106 249 165 q 399 49 317 47 q 499 81 451 50 q 576 156 547 113 l 576 513 q 578 570 576 546 q 583 618 579 594 q 533 616 558 617 q 483 614 508 615 l 483 671 l 526 671 q 613 683 586 671 q 656 708 640 694 l 696 708 l 694 183 q 693 121 694 161 q 689 53 692 81 q 739 56 714 54 q 789 58 764 57 l 789 0 l 590 0 q 584 44 586 24 q 581 83 582 65 q 476 9 538 40 q 354 -22 415 -22 m 589 810 l 413 961 l 410 961 l 231 819 l 196 860 l 417 1081 l 419 1081 l 626 854 l 589 810 z "},"ü":{"ha":829,"x_min":36,"x_max":789,"o":"m 354 -22 q 228 6 279 -22 q 152 100 178 33 q 126 281 126 167 l 126 528 q 127 572 126 550 q 132 618 128 594 q 84 616 108 617 q 36 614 60 615 l 36 671 l 79 671 q 166 683 139 671 q 208 708 193 694 l 249 708 l 249 285 q 283 106 249 165 q 399 49 317 47 q 499 81 451 50 q 576 156 547 113 l 576 513 q 578 570 576 546 q 583 618 579 594 q 533 616 558 617 q 483 614 508 615 l 483 671 l 526 671 q 613 683 586 671 q 656 708 640 694 l 696 708 l 694 183 q 693 121 694 161 q 689 53 692 81 q 739 56 714 54 q 789 58 764 57 l 789 0 l 590 0 q 584 44 586 24 q 581 83 582 65 q 476 9 538 40 q 354 -22 415 -22 m 526 849 q 478 872 499 849 q 457 931 457 896 q 478 990 457 965 q 526 1014 500 1014 q 576 990 557 1014 q 596 931 596 965 q 575 872 596 896 q 526 849 554 849 m 294 849 q 246 872 267 849 q 225 931 225 896 q 247 990 225 965 q 294 1014 268 1014 q 344 990 325 1014 q 364 931 364 965 q 343 872 364 896 q 294 849 322 849 z "},"ù":{"ha":829,"x_min":36,"x_max":789,"o":"m 354 -22 q 228 6 279 -22 q 152 100 178 33 q 126 281 126 167 l 126 528 q 127 572 126 550 q 132 618 128 594 q 84 616 108 617 q 36 614 60 615 l 36 671 l 79 671 q 166 683 139 671 q 208 708 193 694 l 249 708 l 249 285 q 283 106 249 165 q 399 49 317 47 q 499 81 451 50 q 576 156 547 113 l 576 513 q 578 570 576 546 q 583 618 579 594 q 533 616 558 617 q 483 614 508 615 l 483 671 l 526 671 q 613 683 586 671 q 656 708 640 694 l 696 708 l 694 183 q 693 121 694 161 q 689 53 692 81 q 739 56 714 54 q 789 58 764 57 l 789 0 l 590 0 q 584 44 586 24 q 581 83 582 65 q 476 9 538 40 q 354 -22 415 -22 m 485 806 l 329 953 q 299 999 303 978 q 303 1033 296 1019 q 317 1051 311 1047 q 335 1060 321 1054 q 368 1062 349 1067 q 407 1025 388 1057 l 524 838 l 485 806 z "},"v":{"ha":701,"x_min":8,"x_max":697,"o":"m 325 -4 l 126 449 q 92 539 104 501 q 74 601 79 576 q 68 642 69 626 l 8 638 l 8 694 l 264 694 l 264 653 q 210 631 222 653 q 207 574 199 610 q 232 499 215 539 l 339 254 q 360 205 350 231 q 381 151 371 179 l 382 151 q 398 196 389 172 q 414 242 407 219 l 525 546 q 549 604 536 579 q 567 642 561 629 l 478 638 l 478 694 l 697 694 l 697 653 q 646 632 667 653 q 606 569 625 611 q 563 465 588 528 l 381 -4 l 325 -4 z "},"w":{"ha":1113,"x_min":8,"x_max":1111,"o":"m 300 -4 l 118 529 q 101 579 108 558 q 89 615 93 600 q 82 642 85 631 l 8 638 l 8 694 l 303 694 l 303 653 q 234 610 240 651 q 250 503 228 569 l 314 308 q 336 241 325 275 q 358 174 347 207 q 384 249 371 211 q 410 326 397 288 l 533 694 l 590 694 l 731 290 q 753 228 742 260 q 775 164 764 196 q 797 224 786 194 q 817 285 807 254 l 908 549 q 928 601 918 576 q 950 642 938 626 l 869 638 l 869 694 l 1111 694 l 1111 653 q 1052 643 1075 651 q 1014 621 1029 635 q 989 588 999 607 q 971 543 979 568 l 771 -4 l 715 -4 l 583 375 q 567 424 575 400 q 550 473 558 449 q 533 521 542 497 q 517 473 525 497 q 500 424 508 449 q 483 375 492 400 l 353 -4 l 300 -4 z "},"x":{"ha":736,"x_min":31,"x_max":721,"o":"m 33 0 l 33 42 q 101 78 76 53 q 165 154 126 104 l 304 335 q 257 398 285 361 q 205 469 229 435 q 167 519 181 503 q 118 593 133 564 q 96 640 103 622 l 31 638 l 31 694 l 317 694 l 317 653 q 247 624 254 651 q 290 526 239 597 l 371 417 l 497 569 q 532 612 518 594 q 560 643 546 629 l 464 638 l 464 694 l 692 694 l 692 653 q 628 624 654 642 q 576 578 601 607 q 513 504 550 550 l 406 376 l 597 139 q 628 99 613 118 q 658 53 643 79 l 721 57 l 721 0 l 453 0 l 453 42 q 501 58 486 42 q 486 110 515 74 l 340 290 l 224 131 q 192 89 203 103 q 160 53 181 75 l 267 57 l 267 0 l 33 0 z "},"y":{"ha":733,"x_min":6,"x_max":728,"o":"m 168 -376 q 94 -356 125 -376 q 64 -292 64 -335 q 81 -246 64 -267 q 124 -225 97 -225 q 169 -246 157 -224 q 181 -285 181 -268 q 181 -294 181 -289 q 179 -304 181 -299 q 194 -307 183 -307 q 231 -293 211 -307 q 265 -253 250 -279 q 308 -161 283 -222 q 363 -15 332 -100 l 146 449 q 94 572 110 526 q 72 640 78 618 l 6 638 l 6 694 l 293 694 l 293 653 l 288 653 q 224 609 229 649 q 256 489 218 569 l 418 140 q 479 316 450 229 q 538 489 508 403 q 560 552 549 519 q 584 610 572 585 q 606 643 596 636 l 510 638 l 510 694 l 728 694 l 728 653 q 651 588 676 633 q 599 472 625 543 l 425 -12 q 349 -210 383 -129 q 272 -334 314 -292 q 168 -376 231 -376 z "},"ý":{"ha":733,"x_min":6,"x_max":728,"o":"m 168 -376 q 94 -356 125 -376 q 64 -292 64 -335 q 81 -246 64 -267 q 124 -225 97 -225 q 169 -246 157 -224 q 181 -285 181 -268 q 181 -294 181 -289 q 179 -304 181 -299 q 194 -307 183 -307 q 231 -293 211 -307 q 265 -253 250 -279 q 308 -161 283 -222 q 363 -15 332 -100 l 146 449 q 94 572 110 526 q 72 640 78 618 l 6 638 l 6 694 l 293 694 l 293 653 l 288 653 q 224 609 229 649 q 256 489 218 569 l 418 140 q 479 316 450 229 q 538 489 508 403 q 560 552 549 519 q 584 610 572 585 q 606 643 596 636 l 510 638 l 510 694 l 728 694 l 728 653 q 651 588 676 633 q 599 472 625 543 l 425 -12 q 349 -210 383 -129 q 272 -334 314 -292 q 168 -376 231 -376 m 325 806 l 286 838 l 403 1025 q 443 1060 424 1056 q 476 1060 463 1065 q 493 1051 490 1054 q 506 1033 499 1047 q 509 999 513 1019 q 481 953 506 979 l 325 806 z "},"ÿ":{"ha":733,"x_min":6,"x_max":728,"o":"m 168 -376 q 94 -356 125 -376 q 64 -292 64 -335 q 81 -246 64 -267 q 124 -225 97 -225 q 169 -246 157 -224 q 181 -285 181 -268 q 181 -294 181 -289 q 179 -304 181 -299 q 194 -307 183 -307 q 231 -293 211 -307 q 265 -253 250 -279 q 308 -161 283 -222 q 363 -15 332 -100 l 146 449 q 94 572 110 526 q 72 640 78 618 l 6 638 l 6 694 l 293 694 l 293 653 l 288 653 q 224 609 229 649 q 256 489 218 569 l 418 140 q 479 316 450 229 q 538 489 508 403 q 560 552 549 519 q 584 610 572 585 q 606 643 596 636 l 510 638 l 510 694 l 728 694 l 728 653 q 651 588 676 633 q 599 472 625 543 l 425 -12 q 349 -210 383 -129 q 272 -334 314 -292 q 168 -376 231 -376 m 514 849 q 465 872 486 849 q 444 931 444 896 q 466 990 444 965 q 514 1014 488 1014 q 564 990 544 1014 q 583 931 583 965 q 563 872 583 896 q 514 849 542 849 m 282 849 q 233 872 254 849 q 213 931 213 896 q 234 990 213 965 q 282 1014 256 1014 q 332 990 313 1014 q 351 931 351 965 q 331 872 351 896 q 282 849 310 849 z "},"z":{"ha":710,"x_min":56,"x_max":649,"o":"m 56 0 l 56 57 l 443 556 q 487 610 465 583 q 522 646 508 638 l 261 642 q 181 615 210 642 q 140 544 153 588 q 119 446 128 500 l 76 446 l 93 694 l 638 694 l 638 650 l 246 135 q 214 96 228 113 q 174 57 200 79 l 442 53 q 533 79 500 53 q 583 151 567 106 q 608 253 600 197 l 649 253 l 632 0 l 56 0 z "},"ª":{"ha":568,"x_min":75,"x_max":511,"o":"m 211 528 q 109 558 143 528 q 75 632 75 588 q 100 703 75 674 q 166 753 125 733 q 254 781 207 772 q 347 790 301 790 l 347 839 q 342 891 347 867 q 320 931 338 915 q 264 949 303 947 q 211 935 238 950 q 175 896 185 919 q 185 881 182 889 q 188 861 188 872 q 177 833 188 849 q 142 818 167 817 q 109 833 121 818 q 97 867 97 847 q 121 928 97 899 q 185 976 144 957 q 278 994 226 994 q 394 955 353 994 q 433 829 435 915 q 433 751 433 790 q 432 674 432 713 q 442 609 432 628 q 471 590 453 590 q 483 594 476 590 q 496 603 489 597 l 511 576 q 474 545 500 560 q 422 531 447 531 q 369 549 386 531 q 347 590 353 568 q 289 545 322 563 q 211 528 256 528 m 222 588 q 286 597 254 583 q 344 638 318 611 q 345 684 344 654 q 347 747 346 714 q 263 736 304 747 q 197 701 222 725 q 174 640 171 678 q 194 602 176 614 q 222 588 211 590 z "},"º":{"ha":582,"x_min":67,"x_max":518,"o":"m 290 528 q 177 556 228 528 q 97 635 126 585 q 67 751 67 686 q 97 876 67 821 q 178 963 126 931 q 294 994 229 994 q 408 965 358 994 q 488 885 458 936 q 517 768 517 835 q 489 644 518 699 q 408 558 460 589 q 290 528 357 528 m 301 578 q 389 628 358 579 q 419 747 419 678 q 406 845 419 799 q 365 921 393 892 q 289 949 336 950 q 199 897 231 946 q 168 776 168 847 q 183 676 168 722 q 226 603 197 631 q 301 578 256 576 z "},"⁄":{"ha":661,"x_min":-25,"x_max":685,"o":"m 28 -22 l -25 14 l 624 994 l 685 951 l 28 -22 z "},"½":{"ha":1090,"x_min":63,"x_max":1033,"o":"m 106 418 l 106 457 q 161 487 149 457 q 174 560 174 517 l 174 894 l 85 843 l 63 882 l 217 994 l 251 994 l 253 517 q 253 488 253 501 q 250 463 253 474 q 285 464 268 464 q 321 465 303 464 l 321 418 l 106 418 m 229 -22 l 176 14 l 825 994 l 886 951 l 229 -22 m 672 1 q 695 104 672 60 q 755 187 718 149 q 835 260 792 225 q 908 350 893 308 q 924 421 924 392 q 901 493 924 465 q 836 521 878 521 q 778 504 801 521 q 750 465 756 488 q 760 451 757 460 q 763 433 763 443 q 753 407 763 422 q 721 393 744 392 q 692 406 703 393 q 682 438 682 419 q 701 496 682 465 q 760 549 721 526 q 854 571 799 571 q 935 555 897 571 q 997 506 974 539 q 1021 422 1021 474 q 1010 365 1021 396 q 964 297 999 335 q 858 207 929 258 q 784 141 811 172 q 749 79 757 110 l 865 76 q 935 76 906 76 q 982 88 965 76 q 999 132 999 100 l 1033 132 l 1028 1 l 672 1 z "},"¼":{"ha":1051,"x_min":63,"x_max":993,"o":"m 106 418 l 106 457 q 161 487 149 457 q 174 560 174 517 l 174 894 l 85 843 l 63 882 l 217 994 l 251 994 l 253 517 q 253 488 253 501 q 250 463 253 474 q 285 464 268 464 q 321 465 303 464 l 321 418 l 106 418 m 229 -22 l 176 14 l 825 994 l 886 951 l 229 -22 m 768 0 l 768 40 q 824 67 811 42 q 836 132 836 93 l 836 146 l 601 146 l 601 188 l 878 571 l 914 571 l 915 197 l 993 196 l 993 146 l 915 146 q 915 95 915 121 q 915 44 915 69 q 944 46 931 46 q 972 47 958 46 l 972 0 l 768 0 m 836 199 l 836 436 l 667 201 l 836 199 z "},"¾":{"ha":1106,"x_min":75,"x_max":1047,"o":"m 239 424 q 117 466 158 426 q 75 549 75 506 q 86 583 75 568 q 117 599 97 599 q 151 585 142 600 q 161 554 161 569 q 158 539 161 547 q 150 524 156 531 q 181 484 154 497 q 239 471 208 471 q 320 508 293 471 q 347 588 347 544 q 339 639 347 611 q 306 688 331 667 q 232 708 281 708 q 217 708 226 708 q 194 707 207 708 l 194 751 q 202 751 199 751 q 210 751 206 751 q 288 770 264 751 q 319 813 313 789 q 325 851 325 838 q 306 919 325 886 q 235 949 288 951 q 181 931 201 947 q 157 893 161 914 q 167 879 164 888 q 169 863 169 871 q 160 836 169 851 q 128 822 151 821 q 99 836 110 822 q 89 868 89 850 q 108 923 89 893 q 163 974 126 953 q 254 994 200 994 q 369 958 325 994 q 413 860 413 921 q 383 788 413 825 q 296 736 354 751 q 404 687 368 729 q 440 588 440 644 q 387 470 440 518 q 239 424 333 422 m 283 -22 l 231 14 l 879 994 l 940 951 l 283 -22 m 822 0 l 822 40 q 878 67 865 42 q 890 132 890 93 l 890 146 l 656 146 l 656 188 l 932 571 l 968 571 l 969 197 l 1047 196 l 1047 146 l 969 146 q 969 95 969 121 q 969 44 969 69 q 999 46 985 46 q 1026 47 1013 46 l 1026 0 l 822 0 m 890 199 l 890 436 l 721 201 l 890 199 z "},"¹":{"ha":393,"x_min":63,"x_max":321,"o":"m 106 418 l 106 457 q 161 487 149 457 q 174 560 174 517 l 174 894 l 85 843 l 63 882 l 217 994 l 251 994 l 253 517 q 253 488 253 501 q 250 463 253 474 q 285 464 268 464 q 321 465 303 464 l 321 418 l 106 418 z "},"²":{"ha":535,"x_min":85,"x_max":446,"o":"m 85 425 q 108 528 85 483 q 167 610 131 572 q 247 683 204 649 q 321 774 306 732 q 336 844 336 815 q 313 917 336 889 q 249 944 290 944 q 191 928 214 944 q 163 889 168 911 q 172 875 169 883 q 175 857 175 867 q 166 831 175 846 q 133 817 157 815 q 105 830 115 817 q 94 861 94 843 q 114 919 94 889 q 172 972 133 950 q 267 994 211 994 q 348 978 310 994 q 410 930 386 963 q 433 846 433 897 q 422 789 433 819 q 376 720 411 758 q 271 631 342 682 q 197 565 224 596 q 161 503 169 533 l 278 500 q 348 500 318 500 q 394 512 378 500 q 411 556 411 524 l 446 556 l 440 425 l 85 425 z "},"³":{"ha":514,"x_min":75,"x_max":440,"o":"m 239 424 q 117 466 158 426 q 75 549 75 506 q 86 583 75 568 q 117 599 97 599 q 151 585 142 600 q 161 554 161 569 q 158 539 161 547 q 150 524 156 531 q 181 484 154 497 q 239 471 208 471 q 320 508 293 471 q 347 588 347 544 q 339 639 347 611 q 306 688 331 667 q 232 708 281 708 q 217 708 226 708 q 194 707 207 708 l 194 751 q 202 751 199 751 q 210 751 206 751 q 288 770 264 751 q 319 813 313 789 q 325 851 325 838 q 306 919 325 886 q 235 949 288 951 q 181 931 201 947 q 157 893 161 914 q 167 879 164 888 q 169 863 169 871 q 160 836 169 851 q 128 822 151 821 q 99 836 110 822 q 89 868 89 850 q 108 923 89 893 q 163 974 126 953 q 254 994 200 994 q 369 958 325 994 q 413 860 413 921 q 383 788 413 825 q 296 736 354 751 q 404 687 368 729 q 440 588 440 644 q 387 470 440 518 q 239 424 333 422 z "},"⁴":{"ha":560,"x_min":57,"x_max":449,"o":"m 224 424 l 224 464 q 279 491 267 465 q 292 556 292 517 l 292 569 l 57 569 l 57 611 l 333 994 l 369 994 l 371 621 l 449 619 l 449 569 l 371 569 q 371 519 371 544 q 371 468 371 493 q 400 469 386 469 q 428 471 414 469 l 428 424 l 224 424 m 292 622 l 292 860 l 122 625 l 292 622 z "}," ":{"ha":365,"x_min":0,"x_max":0,"o":""}," ":{"ha":365,"x_min":0,"x_max":0,"o":""},"\r":{"ha":365,"x_min":0,"x_max":0,"o":""},".":{"ha":342,"x_min":89,"x_max":251,"o":"m 169 -22 q 113 3 138 -22 q 89 67 89 29 q 114 131 89 104 q 171 157 139 157 q 228 131 206 157 q 251 67 251 104 q 226 3 251 29 q 169 -22 201 -22 z "},",":{"ha":351,"x_min":92,"x_max":267,"o":"m 164 -249 l 126 -221 q 158 -165 142 -201 q 185 -85 175 -129 q 190 0 196 -42 q 172 -6 181 -4 q 156 -8 164 -8 q 110 11 129 -8 q 92 60 92 31 q 115 119 92 99 q 168 140 138 140 q 242 103 217 140 q 267 14 267 67 q 253 -71 267 -21 q 217 -169 240 -121 q 164 -249 194 -217 z "},":":{"ha":347,"x_min":93,"x_max":256,"o":"m 174 -22 q 117 3 142 -22 q 93 67 93 29 q 118 131 93 104 q 175 157 143 157 q 233 131 210 157 q 256 67 256 104 q 231 3 256 29 q 174 -22 206 -22 m 174 538 q 117 563 142 538 q 93 626 93 589 q 118 690 93 664 q 175 717 143 717 q 233 690 210 717 q 256 626 256 664 q 231 563 256 589 q 174 538 206 538 z "},";":{"ha":365,"x_min":97,"x_max":272,"o":"m 169 -249 l 132 -221 q 164 -165 147 -201 q 191 -85 181 -129 q 196 0 201 -42 q 178 -6 186 -4 q 161 -8 169 -8 q 116 11 135 -8 q 97 60 97 31 q 120 119 97 99 q 174 140 143 140 q 247 103 222 140 q 272 14 272 67 q 259 -71 272 -21 q 223 -169 246 -121 q 169 -249 200 -217 m 178 538 q 122 563 146 538 q 97 626 97 589 q 122 690 97 664 q 179 717 147 717 q 237 690 214 717 q 260 626 260 664 q 235 563 260 589 q 178 538 210 538 z "},"…":{"ha":1092,"x_min":89,"x_max":1001,"o":"m 169 -22 q 113 3 138 -22 q 89 67 89 29 q 114 131 89 104 q 171 157 139 157 q 228 131 206 157 q 251 67 251 104 q 226 3 251 29 q 169 -22 201 -22 m 544 -22 q 488 3 513 -22 q 464 67 464 29 q 489 131 464 104 q 546 157 514 157 q 603 131 581 157 q 626 67 626 104 q 601 3 626 29 q 544 -22 576 -22 m 919 -22 q 863 3 888 -22 q 839 67 839 29 q 864 131 839 104 q 921 157 889 157 q 978 131 956 157 q 1001 67 1001 104 q 976 3 1001 29 q 919 -22 951 -22 z "},"!":{"ha":369,"x_min":101,"x_max":267,"o":"m 158 319 l 104 893 q 122 962 101 929 q 185 994 142 994 q 248 962 229 994 q 264 893 267 929 l 210 319 l 158 319 m 183 -22 q 127 3 151 -22 q 103 67 103 29 q 128 131 103 104 q 185 157 153 157 q 242 131 219 157 q 265 67 265 104 q 240 3 265 29 q 183 -22 215 -22 z "},"¡":{"ha":338,"x_min":86,"x_max":251,"o":"m 194 375 l 249 -199 q 231 -267 251 -235 q 168 -300 211 -300 q 105 -267 124 -300 q 89 -199 86 -235 l 143 375 l 194 375 m 169 717 q 226 691 201 717 q 250 628 250 665 q 225 564 250 590 q 168 538 200 538 q 110 564 133 538 q 88 628 88 590 q 113 691 88 665 q 169 717 138 717 z "},"?":{"ha":658,"x_min":46,"x_max":610,"o":"m 314 261 q 238 282 274 261 q 203 354 203 303 q 221 411 203 385 q 269 464 239 438 q 331 518 299 490 q 428 619 383 563 q 475 756 472 675 q 461 849 476 807 q 408 915 446 890 q 306 940 371 940 q 233 925 267 940 q 178 887 199 910 q 153 842 157 864 q 165 817 160 831 q 169 788 169 803 q 163 762 169 776 q 142 738 156 747 q 106 728 128 728 q 60 751 75 731 q 46 801 46 771 q 80 887 46 842 q 176 963 114 932 q 326 994 239 994 q 497 958 435 994 q 584 867 558 922 q 607 753 610 811 q 570 649 603 696 q 492 564 538 603 q 401 492 446 525 q 326 428 357 458 q 296 371 296 399 q 309 340 296 354 q 354 325 322 325 q 379 327 365 325 q 406 335 393 329 l 422 286 q 369 267 400 274 q 314 261 339 261 m 322 -22 q 271 -1 294 -22 q 247 60 247 21 q 271 117 247 93 q 322 142 294 142 q 376 117 354 142 q 397 60 397 93 q 376 1 397 25 q 322 -22 354 -22 z "},"¿":{"ha":649,"x_min":43,"x_max":607,"o":"m 339 433 q 415 413 379 433 q 450 340 450 392 q 432 283 450 310 q 385 231 414 257 q 322 176 356 206 q 226 76 271 132 q 178 -61 181 21 q 192 -153 176 -111 q 244 -221 207 -196 q 347 -246 282 -246 q 421 -231 388 -246 q 476 -192 454 -215 q 500 -147 497 -169 q 488 -122 493 -136 q 483 -93 483 -108 q 490 -67 483 -81 q 511 -42 497 -53 q 547 -33 525 -32 q 592 -56 578 -35 q 607 -107 607 -76 q 574 -192 607 -147 q 477 -269 540 -237 q 326 -300 414 -300 q 157 -264 219 -300 q 69 -172 94 -228 q 46 -58 43 -115 q 83 45 50 -1 q 161 131 115 92 q 251 203 207 169 q 326 266 296 236 q 357 324 357 296 q 344 355 357 340 q 299 369 331 369 q 274 367 289 369 q 247 360 260 365 l 231 408 q 283 427 253 421 q 339 433 314 433 m 331 717 q 382 695 358 717 q 406 635 406 674 q 382 577 406 601 q 331 553 358 553 q 278 577 300 553 q 256 635 256 601 q 277 693 256 669 q 331 717 299 717 z "},"·":{"ha":347,"x_min":93,"x_max":256,"o":"m 174 367 q 117 392 142 367 q 93 456 93 418 q 118 519 93 493 q 175 546 143 546 q 233 519 210 546 q 256 456 256 493 q 231 392 256 418 q 174 367 206 367 z "},"•":{"ha":557,"x_min":69,"x_max":488,"o":"m 278 314 q 173 341 221 314 q 97 415 125 368 q 69 519 69 463 q 97 624 69 578 q 173 698 125 671 q 278 725 221 725 q 383 698 336 725 q 459 624 431 671 q 488 519 488 578 q 459 415 488 463 q 383 341 431 368 q 278 314 336 314 z "},"*":{"ha":722,"x_min":50,"x_max":674,"o":"m 174 419 q 154 456 154 435 q 166 498 154 476 q 192 536 178 519 q 258 606 224 571 q 328 667 293 642 q 233 678 285 669 q 138 694 182 686 q 94 709 115 700 q 61 735 72 718 q 58 776 50 751 q 106 810 71 813 q 172 793 142 808 q 260 751 215 774 q 340 706 306 729 q 321 797 328 746 q 308 894 314 847 q 308 940 306 917 q 324 978 311 963 q 361 994 336 994 q 399 978 388 994 q 412 940 410 963 q 411 894 414 917 q 399 797 406 847 q 379 706 392 746 q 460 751 415 729 q 547 793 504 772 q 592 808 568 803 q 635 806 615 813 q 661 776 654 800 q 645 721 674 739 q 582 694 617 703 q 486 678 536 686 q 393 667 436 669 q 462 606 426 640 q 529 536 497 571 q 556 499 544 521 q 568 456 568 478 q 547 419 568 435 q 509 411 528 406 q 475 434 490 417 q 447 469 460 451 q 401 557 425 510 q 361 643 376 604 q 322 557 346 604 q 275 469 297 510 q 249 434 264 451 q 215 411 233 417 q 174 419 196 406 z "},"#":{"ha":1153,"x_min":46,"x_max":1106,"o":"m 214 -22 l 276 247 l 46 247 l 68 331 l 296 331 l 372 651 l 138 651 l 160 735 l 392 735 l 453 994 l 544 994 l 485 735 l 781 735 l 842 994 l 933 994 l 874 735 l 1106 735 l 1106 733 l 1085 651 l 854 651 l 782 331 l 1014 331 l 992 247 l 764 247 l 703 -22 l 603 -22 l 665 247 l 375 247 l 314 -22 l 214 -22 m 393 331 l 685 331 l 760 651 l 465 651 l 393 331 z "},"/":{"ha":958,"x_min":29,"x_max":931,"o":"m 110 -376 l 29 -326 l 840 1056 l 931 999 l 110 -376 z "},"\\":{"ha":958,"x_min":29,"x_max":931,"o":"m 850 -376 l 29 999 l 119 1056 l 931 -326 l 850 -376 z "},"-":{"ha":679,"x_min":93,"x_max":586,"o":"m 93 396 l 93 493 l 586 493 l 586 401 l 93 396 z "},"–":{"ha":819,"x_min":92,"x_max":724,"o":"m 92 396 l 92 493 l 724 493 l 724 401 l 92 396 z "},"—":{"ha":1168,"x_min":92,"x_max":1071,"o":"m 92 396 l 92 493 l 1071 493 l 1071 401 l 92 396 z "},"_":{"ha":1013,"x_min":79,"x_max":933,"o":"m 79 -154 l 79 -69 l 933 -75 l 933 -154 l 79 -154 z "},"(":{"ha":424,"x_min":50,"x_max":400,"o":"m 365 1056 l 400 1024 q 323 903 357 967 q 264 773 289 840 q 223 633 239 706 q 199 485 207 561 q 190 332 190 410 q 199 180 190 254 q 223 36 207 106 q 264 -99 239 -33 q 323 -226 289 -165 q 400 -344 357 -287 l 365 -376 q 258 -256 314 -329 q 156 -90 203 -183 q 79 110 108 3 q 50 332 50 217 q 79 557 50 447 q 156 763 108 667 q 258 933 203 858 q 365 1056 314 1008 z "},")":{"ha":424,"x_min":25,"x_max":375,"o":"m 60 -376 l 25 -344 q 102 -224 68 -287 q 161 -94 136 -161 q 202 46 186 -26 q 226 194 218 118 q 235 347 235 269 q 226 499 235 425 q 202 643 218 574 q 161 778 186 713 q 102 906 136 844 q 25 1024 68 967 l 60 1056 q 167 935 111 1008 q 269 769 222 863 q 346 569 317 676 q 375 347 375 463 q 346 122 375 232 q 269 -83 317 13 q 167 -254 222 -179 q 60 -376 111 -329 z "},"{":{"ha":464,"x_min":10,"x_max":447,"o":"m 408 -376 q 260 -343 314 -376 q 183 -243 206 -310 q 161 -79 161 -176 q 165 10 161 -39 q 172 106 168 58 q 175 189 175 153 q 147 294 175 260 q 42 329 119 329 l 10 329 l 10 401 l 42 401 q 147 433 119 401 q 175 536 175 465 q 168 649 175 590 q 161 769 161 708 q 183 931 161 868 q 260 1025 206 994 q 408 1056 314 1056 l 447 1056 l 447 1008 q 338 989 376 1011 q 283 917 299 967 q 268 789 268 868 q 273 715 268 758 q 282 628 278 671 q 286 551 286 585 q 264 456 286 494 q 206 397 242 418 q 131 367 171 375 l 131 364 q 206 334 171 357 q 264 272 242 311 q 286 174 286 232 q 282 89 286 142 q 273 -15 278 36 q 268 -99 268 -67 q 283 -232 268 -178 q 338 -312 299 -286 q 447 -337 376 -339 l 447 -376 l 408 -376 z "},"}":{"ha":464,"x_min":17,"x_max":454,"o":"m 56 -376 l 17 -376 l 17 -337 q 127 -312 89 -339 q 181 -232 165 -286 q 196 -99 196 -178 q 192 -15 196 -67 q 183 89 188 36 q 178 174 178 142 q 200 272 178 232 q 258 334 222 311 q 333 364 294 357 l 333 367 q 258 397 294 375 q 200 456 222 418 q 178 551 178 494 q 183 628 178 585 q 192 715 188 671 q 196 789 196 758 q 181 917 196 868 q 127 989 165 967 q 17 1008 89 1011 l 17 1056 l 56 1056 q 205 1025 151 1056 q 281 931 258 994 q 303 769 303 868 q 296 649 303 708 q 289 536 289 590 q 317 433 289 465 q 422 401 346 401 l 454 401 l 454 329 l 422 329 q 317 294 346 329 q 289 189 289 260 q 292 106 289 153 q 299 10 296 58 q 303 -79 303 -39 q 281 -243 303 -176 q 205 -343 258 -310 q 56 -376 151 -376 z "},"[":{"ha":499,"x_min":110,"x_max":482,"o":"m 110 -354 l 111 1049 l 479 1049 l 479 965 l 215 961 l 208 -267 l 482 -271 l 482 -354 l 110 -354 z "},"]":{"ha":499,"x_min":17,"x_max":389,"o":"m 389 1049 l 388 -354 l 19 -354 l 19 -271 l 283 -267 l 290 961 l 17 965 l 17 1049 l 389 1049 z "},"‚":{"ha":351,"x_min":92,"x_max":267,"o":"m 164 -249 l 126 -221 q 158 -165 142 -201 q 185 -85 175 -129 q 190 0 196 -42 q 172 -6 181 -4 q 156 -8 164 -8 q 110 11 129 -8 q 92 60 92 31 q 115 119 92 99 q 168 140 138 140 q 242 103 217 140 q 267 14 267 67 q 253 -71 267 -21 q 217 -169 240 -121 q 164 -249 194 -217 z "},"„":{"ha":596,"x_min":92,"x_max":511,"o":"m 164 -249 l 126 -221 q 158 -165 142 -201 q 185 -85 175 -129 q 190 0 196 -42 q 172 -6 181 -4 q 156 -8 164 -8 q 110 11 129 -8 q 92 60 92 31 q 115 119 92 99 q 168 140 138 140 q 242 103 217 140 q 267 14 267 67 q 253 -71 267 -21 q 217 -169 240 -121 q 164 -249 194 -217 m 408 -249 l 371 -221 q 403 -165 386 -201 q 430 -85 419 -129 q 435 0 440 -42 q 417 -6 425 -4 q 400 -8 408 -8 q 355 11 374 -8 q 336 60 336 31 q 359 119 336 99 q 413 140 382 140 q 486 103 461 140 q 511 14 511 67 q 498 -71 511 -21 q 462 -169 485 -121 q 408 -249 439 -217 z "},"“":{"ha":556,"x_min":64,"x_max":483,"o":"m 167 1056 l 204 1028 q 172 972 189 1008 q 146 893 156 936 q 140 807 136 850 q 158 813 150 811 q 175 815 167 815 q 221 796 203 815 q 239 747 239 776 q 217 688 239 708 q 163 667 194 667 q 90 703 115 667 q 64 793 64 740 q 77 878 64 829 q 113 976 90 928 q 167 1056 136 1025 m 411 1056 l 449 1028 q 417 972 433 1008 q 390 893 400 936 q 385 807 381 850 q 403 813 394 811 q 419 815 411 815 q 465 796 447 815 q 483 747 483 776 q 461 688 483 708 q 407 667 439 667 q 334 703 360 667 q 308 793 308 740 q 322 878 308 829 q 358 976 335 928 q 411 1056 381 1025 z "},"”":{"ha":485,"x_min":35,"x_max":454,"o":"m 107 667 l 69 694 q 101 750 85 714 q 128 830 118 786 q 133 915 139 874 q 115 909 124 911 q 99 907 107 907 q 53 926 72 907 q 35 975 35 946 q 58 1035 35 1014 q 111 1056 81 1056 q 185 1019 160 1056 q 210 929 210 982 q 197 844 210 894 q 160 747 183 794 q 107 667 138 699 m 351 667 l 314 694 q 346 750 329 714 q 373 830 363 786 q 378 915 383 874 q 360 909 368 911 q 343 907 351 907 q 298 926 317 907 q 279 975 279 946 q 302 1035 279 1014 q 356 1056 325 1056 q 429 1019 404 1056 q 454 929 454 982 q 441 844 454 894 q 405 747 428 794 q 351 667 382 699 z "},"‘":{"ha":311,"x_min":64,"x_max":239,"o":"m 167 1056 l 204 1028 q 172 972 189 1008 q 146 893 156 936 q 140 807 136 850 q 158 813 150 811 q 175 815 167 815 q 221 796 203 815 q 239 747 239 776 q 217 688 239 708 q 163 667 194 667 q 90 703 115 667 q 64 793 64 740 q 77 878 64 829 q 113 976 90 928 q 167 1056 136 1025 z "},"’":{"ha":242,"x_min":35,"x_max":210,"o":"m 107 667 l 69 694 q 101 750 85 714 q 128 830 118 786 q 133 915 139 874 q 115 909 124 911 q 99 907 107 907 q 53 926 72 907 q 35 975 35 946 q 58 1035 35 1014 q 111 1056 81 1056 q 185 1019 160 1056 q 210 929 210 982 q 197 844 210 894 q 160 747 183 794 q 107 667 138 699 z "},"«":{"ha":736,"x_min":44,"x_max":660,"o":"m 425 -10 l 44 379 l 44 385 l 421 761 l 465 718 l 194 388 l 194 385 l 468 33 l 425 -10 m 615 107 l 340 376 l 340 381 l 613 644 l 657 604 l 492 376 l 492 374 l 660 147 l 615 107 z "},"»":{"ha":736,"x_min":76,"x_max":692,"o":"m 311 -10 l 268 33 l 542 385 l 542 388 l 271 718 l 315 761 l 692 385 l 692 379 l 311 -10 m 121 107 l 76 147 l 244 374 l 244 376 l 79 604 l 124 644 l 396 381 l 396 376 l 121 107 z "},"‹":{"ha":532,"x_min":43,"x_max":467,"o":"m 424 -10 l 43 381 l 43 386 l 419 763 l 464 718 l 193 389 l 193 386 l 467 35 l 424 -10 z "},"›":{"ha":532,"x_min":64,"x_max":488,"o":"m 107 -10 l 64 35 l 338 386 l 338 389 l 67 718 l 111 763 l 488 386 l 488 381 l 107 -10 z "},"\"":{"ha":481,"x_min":86,"x_max":393,"o":"m 296 682 l 285 994 l 393 994 l 381 682 l 296 682 m 97 682 l 86 994 l 194 994 l 182 682 l 97 682 z "},"'":{"ha":289,"x_min":86,"x_max":203,"o":"m 99 682 l 86 994 l 203 994 l 190 682 l 99 682 z "},"@":{"ha":1106,"x_min":69,"x_max":1047,"o":"m 581 -132 q 357 -97 453 -135 q 197 10 261 -58 q 101 167 133 78 q 69 357 69 257 q 99 534 69 444 q 187 701 128 624 q 337 827 246 778 q 553 883 428 876 q 769 854 676 890 q 923 753 861 818 q 1016 606 985 688 q 1047 442 1047 525 q 1015 261 1047 332 q 936 151 983 190 q 840 99 889 113 q 756 92 790 86 q 685 124 708 100 q 655 183 661 149 q 653 257 649 217 q 665 338 658 297 q 569 154 622 211 q 451 97 517 97 q 349 143 393 97 q 304 290 304 189 q 325 435 304 367 q 388 556 346 503 q 490 639 429 608 q 631 669 551 669 q 704 665 663 669 q 781 651 746 661 q 769 556 775 604 q 757 461 763 507 q 747 374 751 415 q 739 297 742 332 q 738 227 736 261 q 752 169 740 193 q 789 139 764 144 q 846 147 818 133 q 897 194 874 161 q 933 275 919 226 q 949 385 947 324 q 899 652 953 553 q 751 793 844 751 q 542 825 657 835 q 388 778 456 818 q 274 676 321 739 q 201 533 226 613 q 176 365 176 453 q 210 171 176 253 q 300 35 243 89 q 429 -44 357 -18 q 579 -72 501 -69 q 685 -65 628 -74 q 801 -28 743 -57 q 908 57 860 0 l 942 22 q 783 -92 875 -54 q 581 -132 690 -129 m 475 150 q 549 194 513 150 q 616 310 586 239 q 664 462 646 381 q 682 615 682 543 q 644 625 665 622 q 596 628 622 628 q 510 598 547 628 q 449 520 474 568 q 413 415 425 472 q 401 303 401 357 q 421 192 401 233 q 475 150 440 150 z "},"&":{"ha":965,"x_min":50,"x_max":976,"o":"m 376 -22 q 257 -8 315 -22 q 152 40 199 7 q 78 124 106 72 q 50 250 50 176 q 109 410 50 340 q 268 522 168 479 q 208 610 232 569 q 174 692 185 651 q 163 776 163 733 q 236 935 164 876 q 419 994 308 994 q 542 969 490 994 q 623 899 594 943 q 651 800 651 856 q 629 701 651 749 q 557 610 607 654 q 424 524 507 567 q 506 438 461 485 q 597 345 551 390 q 681 264 643 300 q 691 312 688 289 q 694 353 694 335 q 685 416 694 385 q 653 469 676 447 q 589 492 631 490 l 589 538 l 832 538 l 832 481 l 717 486 q 749 439 739 468 q 760 371 758 410 q 755 303 761 344 q 732 218 749 263 q 765 188 747 204 q 801 156 782 172 q 909 73 864 100 q 976 46 954 46 l 976 0 l 847 0 q 791 26 835 0 q 675 115 747 51 q 558 18 631 58 q 376 -22 485 -22 m 393 47 q 538 76 481 44 q 631 154 596 107 q 611 173 621 164 q 590 192 601 182 q 426 354 497 283 q 304 482 354 425 q 235 417 260 456 q 199 339 210 378 q 189 271 189 300 q 219 146 189 194 q 295 74 249 97 q 393 47 342 50 m 393 557 q 508 672 471 608 q 546 796 546 735 q 511 906 546 863 q 413 950 476 950 q 317 908 356 950 q 279 788 279 865 q 312 669 279 728 q 393 557 344 611 z "},"¶":{"ha":696,"x_min":46,"x_max":558,"o":"m 239 -354 l 242 568 q 151 592 196 572 q 76 656 106 613 q 46 771 46 699 q 74 882 46 838 q 149 949 103 926 q 243 972 194 972 l 558 972 l 556 -354 l 458 -354 l 461 915 l 340 911 l 336 -354 l 239 -354 z "},"§":{"ha":740,"x_min":53,"x_max":689,"o":"m 363 -317 q 226 -290 282 -317 q 143 -222 171 -262 q 115 -139 115 -181 q 131 -90 115 -112 q 174 -68 147 -68 q 209 -76 196 -67 q 228 -101 222 -86 q 233 -131 233 -115 q 229 -151 233 -137 q 218 -174 225 -164 q 262 -235 221 -208 q 357 -262 303 -262 q 458 -239 421 -262 q 512 -181 496 -215 q 528 -117 528 -147 q 504 -40 528 -74 q 442 22 481 -7 q 356 78 403 50 q 260 135 308 106 q 159 208 207 168 q 82 299 111 247 q 53 422 53 351 q 85 542 53 481 q 175 653 118 604 q 134 722 149 683 q 117 808 119 760 q 128 887 115 844 q 172 968 142 929 q 253 1031 203 1007 q 378 1056 304 1056 q 508 1030 453 1056 q 595 965 564 1004 q 626 883 626 925 q 612 838 626 857 q 569 818 597 819 q 535 828 547 818 q 517 851 522 838 q 511 875 511 865 q 515 899 511 883 q 528 922 518 914 q 475 980 514 957 q 383 1003 436 1003 q 282 978 319 1003 q 228 917 244 953 q 213 851 213 882 q 237 774 213 808 q 302 710 261 739 q 392 653 343 681 q 490 594 442 625 q 588 523 543 563 q 661 432 633 483 q 689 313 689 381 q 656 191 689 253 q 567 81 624 129 q 608 13 593 50 q 624 -74 624 -25 q 610 -149 624 -107 q 567 -228 597 -190 q 487 -292 538 -267 q 363 -317 436 -317 m 536 113 q 572 183 560 143 q 583 261 583 222 q 558 364 583 321 q 490 440 532 407 q 398 500 449 472 q 297 557 347 528 q 207 621 247 586 q 172 551 183 590 q 160 474 160 511 q 185 370 160 414 q 253 294 211 326 q 346 233 296 261 q 446 177 396 206 q 536 113 496 149 z "},"©":{"ha":1218,"x_min":61,"x_max":1160,"o":"m 608 -69 q 384 -28 485 -69 q 211 87 283 13 q 100 263 139 161 q 61 483 61 364 q 102 699 61 599 q 217 877 143 800 q 391 998 290 954 q 611 1042 492 1042 q 833 998 732 1042 q 1006 877 933 954 q 1119 699 1079 800 q 1160 483 1160 599 q 1117 269 1160 369 q 999 93 1075 169 q 824 -26 924 17 q 608 -69 724 -69 m 613 0 q 800 39 717 0 q 944 146 883 78 q 1036 301 1004 214 q 1068 483 1068 388 q 1035 667 1068 579 q 942 825 1003 756 q 796 934 881 894 q 608 974 711 974 q 423 934 507 974 q 279 825 339 894 q 187 667 219 756 q 154 483 154 579 q 185 301 154 388 q 276 146 217 214 q 421 39 336 78 q 613 0 506 0 m 617 142 q 445 187 521 142 q 325 309 369 232 q 281 481 281 386 q 302 604 281 542 q 367 718 324 667 q 474 801 410 769 q 621 832 538 832 q 719 817 672 832 q 803 775 767 801 l 797 825 l 867 825 l 867 592 l 811 592 q 749 719 800 682 q 626 757 699 757 q 524 728 574 757 q 443 641 475 699 q 411 497 411 583 q 442 360 411 421 q 529 264 474 299 q 657 229 585 229 q 760 257 703 229 q 857 332 818 285 l 899 283 q 808 197 858 228 q 707 153 757 165 q 617 142 657 142 z "},"®":{"ha":1219,"x_min":61,"x_max":1160,"o":"m 608 -69 q 384 -28 485 -69 q 211 86 283 13 q 100 261 139 160 q 61 483 61 363 q 101 700 61 599 q 215 878 142 801 q 390 999 289 956 q 611 1042 490 1042 q 834 999 733 1042 q 1008 878 935 956 q 1120 700 1081 801 q 1160 483 1160 599 q 1117 268 1160 368 q 999 92 1075 168 q 824 -26 924 17 q 608 -69 724 -69 m 613 1 q 801 40 717 1 q 944 147 885 79 q 1036 301 1004 214 q 1068 483 1068 388 q 1035 669 1068 581 q 942 826 1003 757 q 797 934 881 894 q 608 974 713 974 q 422 934 506 974 q 279 826 339 894 q 188 669 219 757 q 156 483 156 581 q 187 301 156 388 q 277 147 218 214 q 421 40 336 79 q 613 1 506 1 m 349 189 l 349 236 q 408 268 400 238 q 415 347 415 299 l 415 710 q 416 746 415 729 q 418 776 417 763 l 349 769 l 349 828 q 430 831 383 829 q 524 833 476 832 q 606 833 571 835 q 801 776 740 831 q 863 650 863 722 q 847 583 863 619 q 796 513 832 546 q 694 463 760 481 q 720 443 706 457 q 753 404 735 429 q 835 289 806 326 q 885 241 865 251 q 924 231 904 231 l 924 183 l 803 183 q 757 218 782 189 q 699 294 732 247 q 660 350 679 322 q 625 403 642 378 q 594 449 608 428 q 555 447 581 447 q 518 449 529 447 l 518 313 q 517 272 518 289 q 515 242 517 254 l 582 244 l 585 189 l 349 189 m 588 506 q 660 521 621 507 q 726 565 699 535 q 754 646 754 594 q 729 721 754 692 q 665 764 704 750 q 583 774 626 778 q 525 738 532 768 q 518 657 518 707 l 518 507 q 553 505 536 506 q 588 506 569 504 z "},"™":{"ha":1483,"x_min":88,"x_max":1396,"o":"m 969 415 l 814 769 q 800 803 807 786 q 787 840 793 821 q 774 876 781 858 q 772 852 772 865 q 771 828 772 839 l 760 525 q 757 492 758 507 q 753 467 756 478 l 821 471 l 821 424 l 625 424 l 625 463 q 680 490 667 464 q 694 560 693 517 q 703 758 700 686 q 708 863 707 829 q 710 907 710 897 q 711 921 711 917 l 651 917 l 651 972 l 831 972 l 954 675 q 983 603 968 642 q 1017 525 999 565 q 1033 560 1025 542 q 1049 596 1042 578 q 1061 628 1056 614 l 1201 972 l 1364 972 l 1364 926 q 1314 899 1324 925 q 1306 828 1304 872 l 1326 536 q 1328 501 1328 521 q 1328 468 1329 482 l 1396 471 l 1396 422 l 1167 422 l 1167 461 q 1219 487 1204 465 q 1231 563 1235 508 l 1218 749 q 1216 782 1217 765 q 1214 815 1215 799 q 1211 847 1213 831 l 1035 415 l 969 415 m 231 421 l 231 460 q 283 484 271 460 q 294 546 294 508 l 294 919 l 206 919 q 147 885 164 918 q 129 789 129 851 l 88 789 l 92 972 l 596 972 l 601 789 l 560 789 q 538 890 558 857 q 456 921 517 922 l 394 921 l 394 525 q 394 494 394 510 q 393 468 394 479 l 457 471 l 457 421 l 231 421 z "},"°":{"ha":563,"x_min":65,"x_max":497,"o":"m 279 561 q 166 590 214 561 q 92 669 118 619 q 65 779 65 719 q 95 888 65 839 q 175 965 125 936 q 283 994 225 994 q 397 965 349 994 q 471 888 444 936 q 497 779 497 839 q 467 669 497 719 q 388 590 438 619 q 279 561 339 561 m 282 633 q 374 677 339 633 q 410 779 410 721 q 374 881 410 836 q 281 926 339 926 q 188 881 224 926 q 153 779 153 836 q 188 677 153 721 q 282 633 224 633 z "},"′":{"ha":344,"x_min":63,"x_max":282,"o":"m 111 692 l 63 713 l 181 1085 l 282 1044 l 111 692 z "},"″":{"ha":553,"x_min":63,"x_max":490,"o":"m 111 692 l 63 713 l 181 1085 l 282 1044 l 111 692 m 319 692 l 271 713 l 389 1085 l 490 1044 l 319 692 z "},"|":{"ha":321,"x_min":110,"x_max":214,"o":"m 114 -376 l 110 1056 l 214 1056 l 208 -376 l 114 -376 z "},"¦":{"ha":338,"x_min":117,"x_max":221,"o":"m 121 535 l 117 1056 l 221 1056 l 215 535 l 121 535 m 121 -376 l 117 140 l 221 140 l 215 -376 l 121 -376 z "},"¢":{"ha":738,"x_min":50,"x_max":685,"o":"m 346 -186 l 346 -22 q 195 34 263 -11 q 89 156 128 79 q 50 335 50 232 q 87 503 50 421 q 191 643 124 585 q 347 717 258 701 l 347 864 l 438 864 l 436 717 q 606 661 543 711 q 669 547 669 611 q 653 495 669 517 q 606 474 636 474 q 555 495 569 472 q 540 536 540 518 q 545 565 540 550 q 561 592 550 579 q 522 641 550 625 q 465 662 494 657 q 415 667 435 667 q 256 590 321 667 q 192 369 192 514 q 222 204 192 276 q 306 90 251 132 q 431 49 360 49 q 556 84 496 49 q 649 169 615 119 l 685 142 q 565 25 636 65 q 428 -22 493 -15 l 426 -186 l 346 -186 z "},"¤":{"ha":743,"x_min":85,"x_max":660,"o":"m 142 56 l 85 100 l 167 193 q 117 353 117 263 q 131 440 117 397 q 171 519 144 483 l 85 617 l 142 663 l 217 568 q 286 608 247 593 q 372 622 325 622 q 460 608 421 622 q 529 568 499 593 l 604 663 l 660 617 l 574 519 q 615 440 601 483 q 628 353 628 397 q 578 193 628 263 l 660 100 l 604 56 l 533 146 q 462 107 503 121 q 372 93 421 93 q 283 107 324 93 q 213 144 243 121 l 142 56 m 372 147 q 440 170 414 147 q 481 228 467 193 q 502 303 496 264 q 508 376 508 343 q 501 436 508 403 q 479 501 494 469 q 438 553 464 532 q 372 574 411 574 q 307 553 333 574 q 265 501 281 532 q 243 436 250 469 q 236 376 236 403 q 242 303 236 343 q 263 228 249 264 q 304 170 278 193 q 372 147 331 147 z "},"$":{"ha":735,"x_min":69,"x_max":683,"o":"m 340 -212 l 339 -22 q 239 -3 292 -19 q 147 38 186 14 l 154 -18 l 79 -18 l 79 275 l 128 275 q 203 90 135 147 q 382 32 272 32 q 515 81 464 32 q 567 206 567 129 q 533 310 567 268 q 444 386 499 353 q 329 450 390 419 q 206 522 265 483 q 108 616 146 561 q 69 753 69 671 q 83 826 69 786 q 128 905 97 867 q 209 968 158 943 q 332 994 260 993 l 332 1157 l 407 1157 l 406 994 q 484 977 446 990 q 560 936 522 964 l 554 994 l 624 994 l 624 692 l 572 692 q 547 815 568 758 q 480 907 526 872 q 351 942 433 942 q 256 918 293 942 q 200 857 218 894 q 182 778 182 819 q 211 686 182 725 q 288 617 240 647 q 389 557 335 586 q 493 500 442 529 q 588 435 544 471 q 658 350 632 399 q 683 236 683 301 q 653 115 683 172 q 564 22 624 58 q 413 -22 504 -15 l 413 -212 l 340 -212 z "},"€":{"ha":1056,"x_min":49,"x_max":997,"o":"m 618 -22 q 412 25 501 -22 q 265 156 322 72 q 186 346 208 239 l 49 344 l 68 428 l 176 428 q 175 488 175 457 q 178 547 175 518 l 49 547 l 68 631 l 194 631 q 278 812 221 729 q 423 944 335 894 q 628 994 511 994 q 765 975 703 994 q 886 915 826 956 l 888 983 l 963 983 l 935 703 l 885 703 q 847 822 875 769 q 769 906 819 875 q 638 936 718 936 q 497 901 563 936 q 383 797 431 865 q 315 631 336 729 l 782 628 l 744 550 l 304 549 q 303 488 303 519 q 304 426 303 456 l 688 425 l 649 347 l 318 346 q 442 133 351 211 q 654 54 532 54 q 825 92 744 54 q 961 208 906 131 l 997 179 q 872 53 938 97 q 740 -6 806 10 q 618 -22 675 -22 z "},"£":{"ha":761,"x_min":65,"x_max":714,"o":"m 179 500 q 162 586 169 540 q 154 690 154 632 q 188 851 154 783 q 278 957 221 919 q 411 994 336 994 q 540 967 493 994 q 608 903 588 940 q 628 833 628 865 q 614 791 628 808 q 572 772 600 774 q 540 781 551 772 q 522 803 528 790 q 517 826 517 817 q 520 848 517 835 q 535 874 524 861 q 499 922 526 901 q 422 942 471 942 q 335 914 371 942 q 282 842 300 886 q 264 746 264 797 q 276 616 264 675 q 297 500 288 557 l 508 500 l 508 433 l 310 433 q 317 330 318 372 q 301 249 317 288 q 246 163 286 211 q 281 167 263 165 q 318 168 300 168 q 429 147 378 168 q 523 106 481 126 q 596 85 565 85 q 647 106 626 85 q 669 172 667 128 l 714 172 q 676 33 711 89 q 572 -22 640 -22 q 488 -2 529 -22 q 408 44 447 18 q 326 91 368 71 q 238 111 285 111 q 226 111 232 111 q 215 110 221 111 q 180 17 208 57 q 117 -22 151 -22 q 79 -6 93 -22 q 65 29 65 10 q 99 101 65 67 q 186 150 133 135 q 212 206 201 174 q 222 276 222 238 q 215 358 222 321 q 197 433 208 396 l 88 433 l 88 500 l 179 500 z "},"¥":{"ha":979,"x_min":39,"x_max":942,"o":"m 346 0 l 346 46 q 409 63 389 47 q 435 116 429 78 q 440 226 440 154 l 263 225 l 263 290 l 440 289 l 440 376 l 263 375 l 263 440 l 400 439 l 200 757 q 148 850 165 813 q 125 914 131 888 q 82 913 103 913 q 39 911 61 913 l 39 972 l 397 972 l 397 926 q 308 907 333 926 q 290 853 283 888 q 324 775 296 819 l 439 592 q 465 553 454 569 q 488 520 475 538 q 524 472 501 503 q 537 497 531 485 q 549 522 543 510 q 562 545 556 533 q 574 569 568 557 q 586 592 581 581 l 701 810 q 719 842 708 824 q 742 881 729 861 q 768 915 756 901 q 714 913 742 914 q 658 911 686 913 l 658 972 l 942 972 l 942 926 q 830 879 874 922 q 738 747 786 836 l 574 438 l 742 438 l 742 378 l 561 376 l 560 289 l 742 288 l 742 228 l 560 226 q 561 143 561 174 q 560 93 561 113 q 557 56 560 74 q 615 58 586 57 q 672 61 643 60 l 672 0 l 346 0 z "},"∕":{"ha":521,"x_min":-22,"x_max":514,"o":"m 35 -75 l -22 -49 l 446 1031 l 514 997 l 35 -75 z "},"+":{"ha":736,"x_min":58,"x_max":678,"o":"m 58 542 l 678 542 l 678 472 l 58 472 l 58 542 m 403 810 l 403 190 l 333 190 l 333 810 l 403 810 z "},"−":{"ha":736,"x_min":58,"x_max":678,"o":"m 58 542 l 678 542 l 678 472 l 58 472 l 58 542 z "},"×":{"ha":736,"x_min":125,"x_max":617,"o":"m 179 749 l 617 311 l 568 261 l 129 700 l 179 749 m 611 696 l 172 257 l 125 304 l 564 743 l 611 696 z "},"÷":{"ha":736,"x_min":58,"x_max":678,"o":"m 367 181 q 310 206 335 181 q 286 269 286 232 q 311 333 286 307 q 368 360 336 360 q 426 333 403 360 q 449 269 449 307 q 424 206 449 232 q 367 181 399 181 m 367 642 q 310 667 335 642 q 286 731 286 693 q 311 794 286 768 q 368 821 336 821 q 426 794 403 821 q 449 731 449 768 q 424 667 449 693 q 367 642 399 642 m 58 542 l 678 542 l 678 472 l 58 472 l 58 542 z "},"=":{"ha":736,"x_min":58,"x_max":678,"o":"m 58 646 l 678 646 l 678 576 l 58 576 l 58 646 m 58 438 l 678 438 l 678 368 l 58 368 l 58 438 z "},">":{"ha":736,"x_min":58,"x_max":676,"o":"m 58 756 l 676 486 l 676 393 l 58 118 l 58 204 l 582 435 l 58 667 l 58 756 z "},"<":{"ha":736,"x_min":47,"x_max":665,"o":"m 665 118 l 47 388 l 47 481 l 665 756 l 665 669 l 142 439 l 665 207 l 665 118 z "},"±":{"ha":736,"x_min":58,"x_max":678,"o":"m 58 542 l 678 542 l 678 472 l 58 472 l 58 542 m 403 810 l 403 190 l 333 190 l 333 810 l 403 810 m 58 69 l 678 69 l 678 0 l 58 0 l 58 69 z "},"~":{"ha":736,"x_min":60,"x_max":676,"o":"m 511 321 q 424 337 460 321 q 360 373 389 353 q 302 409 332 393 q 231 425 272 425 q 135 406 174 425 q 60 358 97 386 l 60 446 q 142 501 104 482 q 236 519 181 519 q 324 505 290 519 q 385 471 358 490 q 437 435 411 451 q 500 415 463 418 q 596 430 550 411 q 676 481 642 449 l 676 393 q 608 342 649 363 q 511 321 567 321 z "},"¬":{"ha":736,"x_min":50,"x_max":669,"o":"m 597 218 l 593 394 l 50 392 l 50 478 l 669 475 l 669 218 l 597 218 z "},"^":{"ha":1143,"x_min":83,"x_max":1060,"o":"m 938 607 l 568 946 l 197 613 l 83 613 l 511 994 l 635 994 l 1060 607 l 938 607 z "},"µ":{"ha":853,"x_min":131,"x_max":817,"o":"m 203 -361 q 147 -328 164 -361 q 131 -240 131 -296 l 132 694 l 249 694 l 249 328 q 260 185 249 249 q 305 85 272 122 q 397 49 338 49 q 493 78 449 49 q 564 147 538 107 l 564 694 l 682 694 l 681 196 q 688 120 681 149 q 710 79 696 92 q 743 67 724 67 q 769 72 756 67 q 801 90 783 76 l 817 69 q 762 18 799 44 q 676 -8 725 -8 q 601 18 625 -8 q 571 78 578 44 q 474 8 532 38 q 356 -22 415 -22 q 265 8 304 -22 q 199 90 226 39 l 196 89 q 219 -86 207 -22 q 241 -185 231 -150 q 258 -240 251 -219 q 265 -286 265 -261 q 250 -337 265 -312 q 203 -361 235 -361 z "},"%":{"ha":1208,"x_min":50,"x_max":1160,"o":"m 229 -24 l 171 25 l 954 994 l 1017 939 l 229 -24 m 301 465 q 163 503 219 465 q 78 599 107 540 q 50 725 50 658 q 79 851 50 790 q 165 953 108 913 q 301 994 221 993 q 444 960 388 997 q 529 863 501 922 q 557 739 557 803 q 522 606 557 668 q 430 504 488 543 q 301 465 372 465 m 307 515 q 385 547 357 515 q 426 624 414 578 q 438 715 438 671 q 431 788 438 749 q 409 861 425 826 q 367 918 393 896 q 301 940 342 940 q 224 908 253 940 q 182 828 194 875 q 169 735 169 781 q 176 668 169 706 q 197 596 182 631 q 238 538 211 561 q 307 515 265 515 m 908 -22 q 765 14 822 -24 q 680 111 708 51 q 651 235 651 171 q 686 369 651 307 q 779 469 721 431 q 908 507 838 507 q 1047 470 992 507 q 1131 374 1103 433 q 1160 247 1160 314 q 1131 122 1160 183 q 1046 19 1101 60 q 908 -22 990 -21 m 913 28 q 989 60 961 28 q 1028 141 1017 93 q 1040 232 1040 189 q 1034 301 1040 263 q 1013 374 1028 339 q 972 431 999 408 q 903 453 944 453 q 825 422 854 453 q 784 347 796 392 q 772 257 772 301 q 779 183 772 222 q 802 108 786 143 q 845 50 818 72 q 913 28 872 28 z "},"̈":{"ha":0,"x_min":83,"x_max":454,"o":"m 385 849 q 336 872 357 849 q 315 931 315 896 q 337 990 315 965 q 385 1014 358 1014 q 435 990 415 1014 q 454 931 454 965 q 433 872 454 896 q 385 849 413 849 m 153 849 q 104 872 125 849 q 83 931 83 896 q 105 990 83 965 q 153 1014 126 1014 q 203 990 183 1014 q 222 931 222 965 q 201 872 222 896 q 153 849 181 849 z "},"̀":{"ha":0,"x_min":60,"x_max":288,"o":"m 249 806 l 93 953 q 63 999 67 978 q 67 1033 60 1019 q 81 1051 75 1047 q 99 1060 85 1054 q 132 1062 113 1067 q 171 1025 151 1057 l 288 838 l 249 806 z "},"́":{"ha":0,"x_min":63,"x_max":289,"o":"m 101 806 l 63 838 l 179 1025 q 219 1060 200 1056 q 253 1060 239 1065 q 269 1051 267 1054 q 282 1033 275 1047 q 285 999 289 1019 q 257 953 282 979 l 101 806 z "},"̃":{"ha":0,"x_min":49,"x_max":515,"o":"m 515 982 q 451 882 493 914 q 374 850 410 850 q 299 869 331 850 q 243 906 268 888 q 192 925 218 925 q 138 912 167 925 q 90 867 110 899 l 49 890 q 109 974 67 939 q 190 1010 151 1008 q 264 992 235 1011 q 318 955 293 974 q 374 936 343 936 q 431 954 404 936 q 475 1003 458 972 l 515 982 z "},"̄":{"ha":0,"x_min":63,"x_max":431,"o":"m 63 889 l 63 972 l 431 972 l 431 894 l 63 889 z "},"̉":{"ha":0,"x_min":163,"x_max":458,"o":"m 303 786 q 320 828 303 811 q 356 860 338 844 q 376 887 369 871 q 382 917 382 903 q 363 967 382 944 q 308 989 343 989 q 265 976 283 989 q 243 947 246 963 q 249 938 246 943 q 251 925 251 932 q 238 899 251 908 q 208 889 225 889 q 177 901 192 889 q 163 942 163 914 q 179 988 163 965 q 228 1024 196 1010 q 307 1039 261 1039 q 419 1003 381 1039 q 458 926 458 968 q 442 871 458 892 q 401 831 426 850 q 372 808 385 818 q 360 786 360 797 l 303 786 z "},"̣":{"ha":0,"x_min":103,"x_max":238,"o":"m 169 -256 q 123 -234 143 -256 q 103 -182 103 -212 q 124 -130 103 -151 q 171 -108 144 -108 q 218 -130 199 -108 q 238 -182 238 -151 q 217 -234 238 -212 q 169 -256 196 -256 z "},"¨":{"ha":538,"x_min":83,"x_max":454,"o":"m 385 849 q 336 872 357 849 q 315 931 315 896 q 337 990 315 965 q 385 1014 358 1014 q 435 990 415 1014 q 454 931 454 965 q 433 872 454 896 q 385 849 413 849 m 153 849 q 104 872 125 849 q 83 931 83 896 q 105 990 83 965 q 153 1014 126 1014 q 203 990 183 1014 q 222 931 222 965 q 201 872 222 896 q 153 849 181 849 z "},"`":{"ha":350,"x_min":60,"x_max":288,"o":"m 249 806 l 93 953 q 63 999 67 978 q 67 1033 60 1019 q 81 1051 75 1047 q 99 1060 85 1054 q 132 1062 113 1067 q 171 1025 151 1057 l 288 838 l 249 806 z "},"´":{"ha":350,"x_min":63,"x_max":289,"o":"m 101 806 l 63 838 l 179 1025 q 219 1060 200 1056 q 253 1060 239 1065 q 269 1051 267 1054 q 282 1033 275 1047 q 285 999 289 1019 q 257 953 282 979 l 101 806 z "},"ˆ":{"ha":556,"x_min":63,"x_max":493,"o":"m 456 810 l 279 961 l 276 961 l 97 819 l 63 860 l 283 1081 l 286 1081 l 493 854 l 456 810 z "},"˚":{"ha":442,"x_min":83,"x_max":358,"o":"m 222 792 q 158 805 189 792 q 106 847 126 818 q 85 918 86 875 q 103 991 83 960 q 154 1040 122 1022 q 219 1057 186 1057 q 283 1044 253 1057 q 335 1003 314 1031 q 357 932 356 975 q 338 858 358 889 q 287 809 318 826 q 222 792 256 792 m 226 835 q 267 858 251 836 q 283 917 283 881 q 267 988 283 961 q 219 1014 250 1015 q 176 990 193 1013 q 158 931 158 967 q 176 862 158 890 q 226 835 194 833 z "},"˜":{"ha":564,"x_min":49,"x_max":515,"o":"m 515 982 q 451 882 493 914 q 374 850 410 850 q 299 869 331 850 q 243 906 268 888 q 192 925 218 925 q 138 912 167 925 q 90 867 110 899 l 49 890 q 109 974 67 939 q 190 1010 151 1008 q 264 992 235 1011 q 318 955 293 974 q 374 936 343 936 q 431 954 404 936 q 475 1003 458 972 l 515 982 z "},"¯":{"ha":493,"x_min":63,"x_max":431,"o":"m 63 889 l 63 972 l 431 972 l 431 894 l 63 889 z "},"¸":{"ha":406,"x_min":63,"x_max":343,"o":"m 71 -335 l 63 -289 q 128 -272 99 -282 q 181 -249 158 -262 q 217 -219 204 -236 q 229 -182 229 -203 q 210 -146 229 -154 q 167 -142 192 -137 q 122 -161 142 -147 l 75 -139 l 115 11 l 193 11 l 156 -103 q 201 -85 175 -92 q 250 -79 226 -79 q 318 -104 293 -79 q 343 -171 343 -129 q 315 -242 343 -212 q 242 -290 286 -271 q 153 -319 199 -308 q 71 -335 107 -329 z "},"ʼ":{"ha":272,"x_min":0,"x_max":175,"o":"m 72 808 l 35 836 q 67 892 50 856 q 94 972 83 928 q 99 1057 104 1015 q 81 1051 89 1053 q 64 1049 72 1049 q 19 1068 38 1049 q 0 1117 0 1088 q 23 1176 0 1156 q 76 1197 46 1197 q 150 1160 125 1197 q 175 1071 175 1124 q 162 986 175 1036 q 126 888 149 936 q 72 808 103 840 z "},"ʻ":{"ha":351,"x_min":92,"x_max":267,"o":"m 194 1140 l 232 1113 q 200 1057 217 1093 q 174 978 183 1021 q 168 892 164 935 q 186 898 178 896 q 203 900 194 900 q 249 881 231 900 q 267 832 267 861 q 244 772 267 793 q 190 751 222 751 q 117 788 143 751 q 92 878 92 825 q 105 963 92 914 q 141 1061 118 1013 q 194 1140 164 1110 z "}}}
